<svg width="400" height="480" xmlns="http://www.w3.org/2000/svg">
 <!-- Created with Method Draw - http://github.com/duopixel/Method-Draw/ -->
 <g id="Layer_1">
  <title>Layer 1</title>
  <path id="svg_1" d="m151.33035,184.84343c10.88477,-28.80382 30.50835,-53.38762 47.20407,-77.78588c19.42026,15.65668 36.19821,50.1023 50.79593,74.09231c-13.02011,27.7496 -31.76147,53.02237 -48.6456,77.9077c-18.20155,-22.76909 -33.76523,-48.78273 -49.3544,-74.21413l0,0z" opacity="undefined" fill-opacity="null" stroke-opacity="null" stroke-dasharray="null" stroke-width="5" stroke="#56aaff" fill="none"/>
  <path stroke="#56aaff" id="svg_2" d="m69.96465,302.96744c11.21756,-30.31918 31.44229,-56.1994 48.64831,-81.87988c20.01513,16.48126 37.30746,52.73926 52.35169,77.9913c-13.4187,29.21085 -32.73418,55.81241 -50.13477,82.0087c-18.75834,-23.96753 -34.80002,-51.35037 -50.86523,-78.12012l0,0z" opacity="undefined" fill-opacity="null" stroke-opacity="null" stroke-dasharray="null" stroke-width="5" fill="none"/>
  <path stroke="#56aaff" id="svg_3" d="m230.02965,305.4267c10.55153,-28.61664 29.57442,-53.03986 45.75917,-77.27414c18.82562,15.55252 35.09061,49.77267 49.24084,73.60605c-12.62137,27.56598 -30.78922,52.6712 -47.15634,77.39395c-17.64444,-22.62143 -32.7332,-48.46396 -47.84367,-73.72586l0,0z" opacity="undefined" fill-opacity="null" stroke-opacity="null" stroke-dasharray="null" stroke-width="5" fill="none"/>
  <line stroke-linecap="null" stroke-linejoin="null" id="svg_4" y2="125.5" x2="215" y1="125.5" x1="184" opacity="undefined" fill-opacity="null" stroke-opacity="null" stroke-dasharray="null" stroke-width="5" stroke="#56aaff" fill="none"/>
  <line stroke-linecap="null" stroke-linejoin="null" id="svg_5" y2="143.5" x2="226" y1="143.5" x1="174" opacity="undefined" fill-opacity="null" stroke-opacity="null" stroke-dasharray="null" stroke-width="5" stroke="#56aaff" fill="none"/>
  <line stroke-linecap="null" stroke-linejoin="null" id="svg_6" y2="168.5" x2="241" y1="168.5" x1="158" opacity="undefined" fill-opacity="null" stroke-opacity="null" stroke-dasharray="null" stroke-width="5" stroke="#56aaff" fill="none"/>
  <line stroke-linecap="null" stroke-linejoin="null" id="svg_7" y2="192.5" x2="241" y1="194.5" x1="159" opacity="undefined" fill-opacity="null" stroke-opacity="null" stroke-dasharray="null" stroke-width="5" stroke="#56aaff" fill="none"/>
  <line stroke-linecap="null" stroke-linejoin="null" id="svg_8" y2="214.5" x2="227" y1="215.5" x1="174" opacity="undefined" fill-opacity="null" stroke-opacity="null" stroke-dasharray="null" stroke-width="5" stroke="#56aaff" fill="none"/>
  <line stroke-linecap="null" stroke-linejoin="null" id="svg_9" y2="237.5" x2="212" y1="237.5" x1="189" opacity="undefined" fill-opacity="null" stroke-opacity="null" stroke-dasharray="null" stroke-width="5" stroke="#56aaff" fill="none"/>
  <line stroke-linecap="null" stroke-linejoin="null" id="svg_10" y2="250.5" x2="138" y1="250.5" x1="100" opacity="undefined" fill-opacity="null" stroke-opacity="null" stroke-dasharray="null" stroke-width="5" stroke="#56aaff" fill="none"/>
  <line stroke-linecap="null" stroke-linejoin="null" id="svg_11" y2="267.5" x2="150" y1="267.5" x1="88" opacity="undefined" fill-opacity="null" stroke-opacity="null" stroke-dasharray="null" stroke-width="5" stroke="#56aaff" fill="none"/>
  <line stroke-linecap="null" stroke-linejoin="null" id="svg_13" y2="291.5" x2="72" y1="291.5" x1="82" opacity="undefined" fill-opacity="null" stroke-opacity="null" stroke-dasharray="null" stroke-width="5" stroke="#56aaff" fill="none"/>
  <line stroke-linecap="null" stroke-linejoin="null" id="svg_14" y2="292.5" x2="166" y1="292.5" x1="79" opacity="undefined" fill-opacity="null" stroke-opacity="null" stroke-dasharray="null" stroke-width="5" stroke="#56aaff" fill="none"/>
  <line stroke-linecap="null" stroke-linejoin="null" id="svg_15" y2="315.5" x2="162" y1="316.5" x1="79" opacity="undefined" fill-opacity="null" stroke-opacity="null" stroke-dasharray="null" stroke-width="5" stroke="#56aaff" fill="none"/>
  <line stroke-linecap="null" stroke-linejoin="null" id="svg_16" y2="339.5" x2="146" y1="339.5" x1="94" opacity="undefined" fill-opacity="null" stroke-opacity="null" stroke-dasharray="null" stroke-width="5" stroke="#56aaff" fill="none"/>
  <line stroke-linecap="null" stroke-linejoin="null" id="svg_17" y2="357.5" x2="135" y1="358.5" x1="104" opacity="undefined" fill-opacity="null" stroke-opacity="null" stroke-dasharray="null" stroke-width="5" stroke="#56aaff" fill="none"/>
  <line stroke-linecap="null" stroke-linejoin="null" id="svg_18" y2="258.5" x2="298" y1="259.5" x1="256" opacity="undefined" fill-opacity="null" stroke-opacity="null" stroke-dasharray="null" stroke-width="5" stroke="#56aaff" fill="none"/>
  <line stroke-linecap="null" stroke-linejoin="null" id="svg_19" y2="278.5" x2="309" y1="278.5" x1="245" opacity="undefined" fill-opacity="null" stroke-opacity="null" stroke-dasharray="null" stroke-width="5" stroke="#56aaff" fill="none"/>
  <line stroke-linecap="null" stroke-linejoin="null" id="svg_20" y2="300.5" x2="324" y1="300.5" x1="233" opacity="undefined" fill-opacity="null" stroke-opacity="null" stroke-dasharray="null" stroke-width="5" stroke="#56aaff" fill="none"/>
  <line stroke-linecap="null" stroke-linejoin="null" id="svg_21" y2="319.5" x2="314" y1="319.5" x1="240" opacity="undefined" fill-opacity="null" stroke-opacity="null" stroke-dasharray="null" stroke-width="5" stroke="#56aaff" fill="none"/>
  <line stroke-linecap="null" stroke-linejoin="null" id="svg_22" y2="339.5" x2="302" y1="340.5" x1="252" opacity="undefined" fill-opacity="null" stroke-opacity="null" stroke-dasharray="null" stroke-width="5" stroke="#56aaff" fill="none"/>
  <line stroke-linecap="null" stroke-linejoin="null" id="svg_23" y2="360.5" x2="288" y1="360.5" x1="265" opacity="undefined" fill-opacity="null" stroke-opacity="null" stroke-dasharray="null" stroke-width="5" stroke="#56aaff" fill="none"/>
 </g>
</svg>