<svg width="400" height="480" xmlns="http://www.w3.org/2000/svg">
 <!-- Created with Method Draw - http://github.com/duopixel/Method-Draw/ -->
 <g id="Layer_1">
  <title>Layer 1</title>
  <path id="svg_1" d="m66.94536,274.88342c10.66187,-36.38554 29.88574,-67.43849 46.23999,-98.25587c19.02466,19.77721 35.46021,63.28708 49.76001,93.59181c-12.75439,35.05081 -31.11401,66.97263 -47.65283,98.4082c-17.83008,-28.76074 -33.07764,-61.62018 -48.34717,-93.74414l0,0z" opacity="undefined" fill-opacity="null" stroke-opacity="null" stroke-dasharray="null" stroke-width="5" stroke="#56aaff" fill="none"/>
  <path id="svg_2" d="m219.00537,268.39304c10.77313,-37.52078 30.198,-69.54292 46.72092,-101.32637c19.22156,20.39639 35.82938,65.26485 50.27908,96.51656c-12.88779,36.14624 -31.43738,69.06561 -48.14868,101.48346c-18.01782,-29.6564 -33.42178,-63.54257 -48.85132,-96.67365l0,0z" opacity="undefined" fill-opacity="null" stroke-opacity="null" stroke-dasharray="null" stroke-width="5" stroke="#56aaff" fill="none"/>
  <line stroke-linecap="null" stroke-linejoin="null" id="svg_3" y2="200.5" x2="127" y1="200.5" x1="101" opacity="undefined" fill-opacity="null" stroke-opacity="null" stroke-dasharray="null" stroke-width="5" stroke="#56aaff" fill="none"/>
  <line stroke-linecap="null" stroke-linejoin="null" id="svg_4" y2="232.5" x2="145" y1="231.5" x1="86" opacity="undefined" fill-opacity="null" stroke-opacity="null" stroke-dasharray="null" stroke-width="5" stroke="#56aaff" fill="none"/>
  <line stroke-linecap="null" stroke-linejoin="null" id="svg_5" y2="214.5" x2="136" y1="214.5" x1="95" opacity="undefined" fill-opacity="null" stroke-opacity="null" stroke-dasharray="null" stroke-width="5" stroke="#56aaff" fill="none"/>
  <line stroke-linecap="null" stroke-linejoin="null" id="svg_6" y2="251.5" x2="154" y1="252.5" x1="76" opacity="undefined" fill-opacity="null" stroke-opacity="null" stroke-dasharray="null" stroke-width="5" stroke="#56aaff" fill="none"/>
  <line stroke-linecap="null" stroke-linejoin="null" id="svg_7" y2="270.5" x2="162" y1="271.5" x1="69" opacity="undefined" fill-opacity="null" stroke-opacity="null" stroke-dasharray="null" stroke-width="5" stroke="#56aaff" fill="none"/>
  <line stroke-linecap="null" stroke-linejoin="null" id="svg_8" y2="293.5" x2="155" y1="293.5" x1="76" opacity="undefined" fill-opacity="null" stroke-opacity="null" stroke-dasharray="null" stroke-width="5" stroke="#56aaff" fill="none"/>
  <line stroke-linecap="null" stroke-linejoin="null" id="svg_9" y2="315.5" x2="142" y1="316.5" x1="85" opacity="undefined" fill-opacity="null" stroke-opacity="null" stroke-dasharray="null" stroke-width="5" stroke="#56aaff" fill="none"/>
  <line stroke-linecap="null" stroke-linejoin="null" id="svg_10" y2="337.5" x2="130" y1="337.5" x1="96" opacity="undefined" fill-opacity="null" stroke-opacity="null" stroke-dasharray="null" stroke-width="5" stroke="#56aaff" fill="none"/>
  <line stroke-linecap="null" stroke-linejoin="null" id="svg_11" y2="195.5" x2="283" y1="195.5" x1="253" opacity="undefined" fill-opacity="null" stroke-opacity="null" stroke-dasharray="null" stroke-width="5" stroke="#56aaff" fill="none"/>
  <line stroke-linecap="null" stroke-linejoin="null" id="svg_12" y2="220.5" x2="296" y1="221.5" x1="240" opacity="undefined" fill-opacity="null" stroke-opacity="null" stroke-dasharray="null" stroke-width="5" stroke="#56aaff" fill="none"/>
  <line stroke-linecap="null" stroke-linejoin="null" id="svg_13" y2="244.5" x2="305" y1="245.5" x1="231" opacity="undefined" fill-opacity="null" stroke-opacity="null" stroke-dasharray="null" stroke-width="5" stroke="#56aaff" fill="none"/>
  <line stroke-linecap="null" stroke-linejoin="null" id="svg_14" y2="272.5" x2="312" y1="273.5" x1="220" opacity="undefined" fill-opacity="null" stroke-opacity="null" stroke-dasharray="null" stroke-width="5" stroke="#56aaff" fill="none"/>
  <line stroke-linecap="null" stroke-linejoin="null" id="svg_15" y2="297.5" x2="303" y1="298.5" x1="234" opacity="undefined" fill-opacity="null" stroke-opacity="null" stroke-dasharray="null" stroke-width="5" stroke="#56aaff" fill="none"/>
  <line stroke-linecap="null" stroke-linejoin="null" id="svg_16" y2="326.5" x2="286" y1="324.5" x1="246" opacity="undefined" fill-opacity="null" stroke-opacity="null" stroke-dasharray="null" stroke-width="5" stroke="#56aaff" fill="none"/>
 </g>
</svg>