<svg width="400" height="480" xmlns="http://www.w3.org/2000/svg">
 <!-- Created with Method Draw - http://github.com/duopixel/Method-Draw/ -->
 <g id="Layer_1">
  <title>Layer 1</title>
  <path id="svg_18" d="m167.63905,309.53c-48.2543,-35.42456 -65.50775,-57.83626 -65.64607,-85.27202c-0.12808,-25.00932 21.16878,-49.14661 43.24086,-49.00745c11.02052,0.06958 34.66353,9.27499 43.03336,16.75716c4.21872,3.76892 6.21733,3.39551 15.60757,-2.90613c25.55922,-17.14911 50.5172,-17.50861 66.68172,-0.96021c25.83347,26.44731 21.13055,58.03006 -13.52051,90.7919c-18.42229,17.41592 -58.65308,48.31668 -62.90858,48.31668c-1.29427,0 -13.21378,-7.97415 -26.48834,-17.71994l0,0z" opacity="undefined" fill-opacity="null" stroke-opacity="null" stroke-dasharray="null" stroke-width="6" stroke="#ffaa56" fill="#ffaa56"/>
  <path id="svg_19" d="m-448.70868,-96.60818c-0.38873,-0.46614 -0.52774,-0.76101 -0.52887,-1.12198c-0.00101,-0.32908 0.17056,-0.64669 0.34836,-0.64485c0.08878,0.00091 0.27924,0.12202 0.34668,0.22047c0.034,0.04961 0.05008,0.04471 0.12573,-0.03821c0.2059,-0.22565 0.40695,-0.23038 0.53717,-0.01265c0.20813,0.34799 0.17023,0.76357 -0.10892,1.19463c-0.14841,0.22918 -0.4725,0.63576 -0.50677,0.63576c-0.01044,0 -0.10645,-0.10493 -0.21338,-0.23316l0,0z" opacity="undefined" fill-opacity="null" stroke-opacity="null" stroke-dasharray="null" stroke-width="6" stroke="#ffaa56" fill="#ffaa56"/>
 </g>
</svg>