<svg width="400" height="480" xmlns="http://www.w3.org/2000/svg">
 <!-- Created with Method Draw - http://github.com/duopixel/Method-Draw/ -->
 <g id="Layer_1">
  <title>Layer 1</title>
  <path stroke="#ffaa56" id="svg_18" d="m90.54211,366.61026c-43.03762,-27.26761 -58.42583,-44.51871 -58.54919,-65.63702c-0.11423,-19.25061 18.88026,-37.82996 38.56618,-37.72284c9.82912,0.05356 30.91611,7.13931 38.38109,12.89859c3.76265,2.90109 5.5452,2.61365 13.92027,-2.23694c22.79607,-13.20032 45.05588,-13.47702 59.47289,-0.73911c23.04065,20.35745 18.84616,44.66788 -12.05882,69.88586c-16.43069,13.40567 -52.31221,37.19113 -56.10767,37.19113c-1.15434,0 -11.78526,-6.138 -23.62474,-13.63968l0,0z" opacity="undefined" fill-opacity="null" stroke-opacity="null" stroke-dasharray="null" stroke-width="6" fill="#ffaa56"/>
  <path id="svg_19" d="m-448.70868,-96.60818c-0.38873,-0.46614 -0.52774,-0.76101 -0.52887,-1.12198c-0.00101,-0.32908 0.17056,-0.64669 0.34836,-0.64485c0.08878,0.00091 0.27924,0.12202 0.34668,0.22047c0.034,0.04961 0.05008,0.04471 0.12573,-0.03821c0.2059,-0.22565 0.40695,-0.23038 0.53717,-0.01265c0.20813,0.34799 0.17023,0.76357 -0.10892,1.19463c-0.14841,0.22918 -0.4725,0.63576 -0.50677,0.63576c-0.01044,0 -0.10645,-0.10493 -0.21338,-0.23316l0,0z" opacity="undefined" fill-opacity="null" stroke-opacity="null" stroke-dasharray="null" stroke-width="6" stroke="#ffaa56" fill="#ffaa56"/>
  <path stroke="#ffaa56" id="svg_20" d="m173.07733,223.77875c-43.29886,-28.2012 -58.78032,-46.04112 -58.90444,-67.87979c-0.11525,-19.90926 18.9947,-39.1243 38.80038,-39.01352c9.88866,0.05539 31.10361,7.38294 38.61385,13.33823c3.78552,3.00117 5.57884,2.70535 14.00471,-2.31112c22.93343,-13.65257 45.32875,-13.93875 59.83249,-0.76576c23.18045,21.05393 18.96057,46.19567 -12.13148,72.27534c-16.53009,13.86482 -52.62886,38.46284 -56.4473,38.46284c-1.16136,0 -11.85695,-6.3476 -23.7682,-14.10622l0,0z" opacity="undefined" fill-opacity="null" stroke-opacity="null" stroke-dasharray="null" stroke-width="6" fill="#ffaa56"/>
  <path transform="rotate(-2.16581 302.832 319.84)" stroke="#ffaa56" id="svg_21" d="m280.04526,366.61871c-40.95094,-28.43808 -55.59303,-46.42261 -55.71255,-68.44339c-0.1078,-20.07266 17.96696,-39.44965 36.69852,-39.33511c9.3522,0.05463 29.41452,7.44257 36.51987,13.448c3.57904,3.02692 5.27505,2.72797 13.24454,-2.33069c21.69055,-13.7666 42.87054,-14.05327 56.58783,-0.77069c21.92404,21.22827 17.93292,46.57669 -11.47333,72.86966c-15.63379,13.98239 -49.776,38.7832 -53.38583,38.7832c-1.09985,0 -11.21481,-6.40182 -22.47903,-14.22098l0,0z" opacity="undefined" fill-opacity="null" stroke-opacity="null" stroke-dasharray="null" stroke-width="6" fill="#ffaa56"/>
 </g>
</svg>