<svg width="400" height="480" xmlns="http://www.w3.org/2000/svg">
 <!-- Created with Method Draw - http://github.com/duopixel/Method-Draw/ -->
 <g id="Layer_1">
  <title>Layer 1</title>
  <path stroke="#ffaa56" id="svg_6" d="m57.88715,286.88181c12.10649,-35.81647 33.93277,-66.38449 52.50249,-96.72176c21.60008,19.4678 40.26128,62.2982 56.49751,92.12941c-14.48158,34.50455 -35.32654,65.92804 -54.10582,96.87061c-20.24457,-28.31024 -37.5569,-60.6561 -54.89418,-92.27826l0,0z" opacity="undefined" stroke-dasharray="null" stroke-width="6" fill="#ffaa56"/>
  <path stroke="#ffaa56" id="svg_7" d="m231.51785,287.95566c11.88599,-35.81674 33.31015,-66.38475 51.53751,-96.72061c21.20538,19.46783 39.52417,62.29825 55.46249,92.12943c-14.2142,34.50311 -34.67834,65.92621 -53.11469,96.87057c-19.87311,-28.31128 -36.86615,-60.65723 -53.88531,-92.27939l0,0z" opacity="undefined" stroke-opacity="null" stroke-dasharray="null" stroke-width="6" fill="#ffaa56"/>
  <path stroke="#ffaa56" id="svg_9" d="m147.74715,166.01288c11.66222,-36.00485 32.68753,-66.73528 50.57578,-97.23283c20.80786,19.57158 38.78355,62.62827 54.42421,92.6162c-13.95042,34.6868 -34.02972,66.27657 -52.12029,97.38379c-19.50163,-28.46027 -36.17865,-60.97707 -52.8797,-92.76715l0,0z" opacity="undefined" stroke-opacity="null" stroke-dasharray="null" stroke-width="6" fill="#ffaa56"/>
 </g>
</svg>