<svg width="400" height="480" xmlns="http://www.w3.org/2000/svg">
 <!-- Created with Method Draw - http://github.com/duopixel/Method-Draw/ -->
 <g id="Layer_1">
  <title>Layer 1</title>
  <path id="svg_9" d="m183.04103,210.38692c-37.56081,-26.33627 -50.98943,-42.99762 -51.09819,-63.39211c-0.09998,-18.59389 16.47847,-36.53815 33.65773,-36.43424c8.57941,0.05173 26.98203,6.89477 33.49796,12.45634c3.2838,2.80192 4.83838,2.52604 12.14757,-2.15875c19.89522,-12.74991 39.3222,-13.01717 51.90253,-0.7147c20.10889,19.66168 16.44778,43.14212 -10.52367,67.49709c-14.3381,12.94836 -45.65363,35.91957 -48.9649,35.91957c-1.00746,0 -10.28644,-5.92795 -20.61902,-13.1732l0,0z" opacity="undefined" fill-opacity="null" stroke-opacity="null" stroke-dasharray="null" stroke-width="6" stroke="#e50d26" fill="#ffffff"/>
  <path id="svg_10" d="m183.44966,376.41409c-39.38678,-24.47449 -53.4693,-39.95468 -53.58179,-58.90518c-0.10484,-17.27783 17.27786,-33.953 35.29344,-33.8537c8.99512,0.0481 28.29312,6.40527 35.12463,11.57388c3.44431,2.60193 5.07558,2.34558 12.73929,-2.00592c20.86211,-11.84625 41.23364,-12.09619 54.42673,-0.6665c21.08588,18.27118 17.24728,40.08954 -11.03522,62.71866c-15.03639,12.03217 -47.87328,33.37946 -51.34755,33.37946c-1.05556,0 -10.78532,-5.50833 -21.61954,-12.24069l0,0z" opacity="undefined" fill-opacity="null" stroke-opacity="null" stroke-dasharray="null" stroke-width="6" stroke="#e50d26" fill="#ffffff"/>
 </g>
</svg>