<svg width="400" height="480" xmlns="http://www.w3.org/2000/svg">
 <!-- Created with Method Draw - http://github.com/duopixel/Method-Draw/ -->
 <g id="Layer_1">
  <title>Layer 1</title>
  <path id="svg_19" d="m-448.70868,-96.60818c-0.38873,-0.46614 -0.52774,-0.76101 -0.52887,-1.12198c-0.00101,-0.32908 0.17056,-0.64669 0.34836,-0.64485c0.08878,0.00091 0.27924,0.12202 0.34668,0.22047c0.034,0.04961 0.05008,0.04471 0.12573,-0.03821c0.2059,-0.22565 0.40695,-0.23038 0.53717,-0.01265c0.20813,0.34799 0.17023,0.76357 -0.10892,1.19463c-0.14841,0.22918 -0.4725,0.63576 -0.50677,0.63576c-0.01044,0 -0.10645,-0.10493 -0.21338,-0.23316l0,0z" opacity="undefined" fill-opacity="null" stroke-opacity="null" stroke-dasharray="null" stroke-width="6" stroke="#ffaa56" fill="#ffaa56"/>
  <path stroke="#ffaa56" transform="rotate(0.116032 197.832 239.34)" id="svg_21" d="m169.24702,295.7356c-51.37107,-34.28439 -69.73891,-55.96623 -69.88885,-82.51407c-0.13524,-24.19923 22.53873,-47.55978 46.03661,-47.42169c11.7319,0.06584 36.89915,8.97261 45.81248,16.21265c4.48976,3.6492 6.61732,3.28879 16.61467,-2.80983c27.20981,-16.59677 53.77913,-16.94237 70.98683,-0.92912c27.50272,25.59239 22.49603,56.15198 -14.39276,87.85031c-19.61185,16.8569 -62.4417,46.75632 -66.97006,46.75632c-1.37971,0 -14.06848,-7.71793 -28.19893,-17.14456l0,0z" opacity="undefined" stroke-opacity="null" stroke-dasharray="null" stroke-width="6" fill="#ffffff"/>
 </g>
</svg>