<svg width="400" height="480" xmlns="http://www.w3.org/2000/svg">
 <!-- Created with Method Draw - http://github.com/duopixel/Method-Draw/ -->
 <g id="Layer_1">
  <title>Layer 1</title>
  <path id="svg_19" d="m-448.70868,-96.60818c-0.38873,-0.46614 -0.52774,-0.76101 -0.52887,-1.12198c-0.00101,-0.32908 0.17056,-0.64669 0.34836,-0.64485c0.08878,0.00091 0.27924,0.12202 0.34668,0.22047c0.034,0.04961 0.05008,0.04471 0.12573,-0.03821c0.2059,-0.22565 0.40695,-0.23038 0.53717,-0.01265c0.20813,0.34799 0.17023,0.76357 -0.10892,1.19463c-0.14841,0.22918 -0.4725,0.63576 -0.50677,0.63576c-0.01044,0 -0.10645,-0.10493 -0.21338,-0.23316l0,0z" opacity="undefined" fill-opacity="null" stroke-opacity="null" stroke-dasharray="null" stroke-width="6" stroke="#ffaa56" fill="#ffaa56"/>
  <path stroke="#ffaa56" transform="rotate(0.116032 115.332 323.34)" id="svg_21" d="m92.11012,370.50443c-41.73289,-28.67255 -56.65459,-46.80542 -56.77639,-69.00775c-0.10987,-20.23822 18.31005,-39.77499 37.39929,-39.65952c9.53078,0.05508 29.97619,7.50394 37.21722,13.5589c3.6474,3.05188 5.37579,2.75046 13.49744,-2.34991c22.10475,-13.88013 43.68919,-14.16913 57.66841,-0.77704c22.34271,21.40332 18.27536,46.96075 -11.69241,73.47058c-15.93231,14.09769 -50.7265,39.10303 -54.40526,39.10303c-1.12086,0 -11.42897,-6.45462 -22.90829,-14.33829l0,0z" opacity="undefined" stroke-opacity="null" stroke-dasharray="null" stroke-width="6" fill="#ffffff"/>
  <path stroke="#ffaa56" id="svg_23" d="m185.02657,227.02562c-44.60263,-27.96846 -60.54779,-45.66077 -60.67825,-67.31923c-0.11742,-19.74442 19.5668,-38.8007 39.96857,-38.69096c10.18916,0.05505 32.03908,7.32204 39.77812,13.22834c3.89824,2.97591 5.74562,2.68248 14.42661,-2.29225c23.62422,-13.5397 46.69232,-13.82377 61.63284,-0.75938c23.8801,20.87997 19.53287,45.81413 -12.49561,71.67786c-17.03065,13.75072 -54.21487,38.14497 -58.14699,38.14497c-1.19769,0 -12.21658,-6.29518 -24.48529,-13.98935l0,0z" opacity="undefined" fill-opacity="null" stroke-opacity="null" stroke-dasharray="null" stroke-width="6" fill="#ffffff"/>
  <path stroke="#ffaa56" id="svg_25" d="m275.07333,370.16055c-41.73193,-27.26837 -56.65381,-44.52069 -56.77551,-65.63687c-0.10986,-19.25275 18.3102,-37.83035 37.39871,-37.72324c9.53262,0.05356 29.97751,7.13754 37.21851,12.89685c3.64758,2.90286 5.37604,2.61365 13.49811,-2.23517c22.10452,-13.20038 43.69089,-13.47888 57.67032,-0.73911c22.34204,20.3558 18.27264,44.66788 -11.69421,69.88617c-15.93262,13.40744 -50.72711,37.1908 -54.40585,37.1908c-1.11938,0 -11.42911,-6.13782 -22.91006,-13.63943l0,0z" opacity="undefined" fill-opacity="null" stroke-opacity="null" stroke-dasharray="null" stroke-width="6" fill="#ffffff"/>
 </g>
</svg>