<svg width="400" height="480" xmlns="http://www.w3.org/2000/svg">
 <!-- Created with Method Draw - http://github.com/duopixel/Method-Draw/ -->
 <g id="Layer_1">
  <title>Layer 1</title>
  <path id="svg_19" d="m-448.70868,-96.60818c-0.38873,-0.46614 -0.52774,-0.76101 -0.52887,-1.12198c-0.00101,-0.32908 0.17056,-0.64669 0.34836,-0.64485c0.08878,0.00091 0.27924,0.12202 0.34668,0.22047c0.034,0.04961 0.05008,0.04471 0.12573,-0.03821c0.2059,-0.22565 0.40695,-0.23038 0.53717,-0.01265c0.20813,0.34799 0.17023,0.76357 -0.10892,1.19463c-0.14841,0.22918 -0.4725,0.63576 -0.50677,0.63576c-0.01044,0 -0.10645,-0.10493 -0.21338,-0.23316l0,0z" opacity="undefined" fill-opacity="null" stroke-opacity="null" stroke-dasharray="null" stroke-width="6" stroke="#ffaa56" fill="#ffaa56"/>
  <path stroke="#ffaa56" transform="rotate(0.116032 199.332 329.34)" id="svg_21" d="m175.23929,376.50909c-43.2979,-28.67538 -58.77917,-46.81006 -58.90553,-69.01459c-0.11399,-20.2402 18.99669,-39.7789 38.80177,-39.66342c9.8882,0.05508 31.10031,7.50467 38.61288,13.56024c3.78418,3.05219 5.57738,2.75073 14.0036,-2.35016c22.93369,-13.8815 45.32755,-14.17053 59.83099,-0.7771c23.18057,21.40543 18.96069,46.96539 -12.13089,73.47781c-16.52977,14.09909 -52.62875,39.1069 -56.44547,39.1069c-1.16289,0 -11.85756,-6.45526 -23.76736,-14.33969l0,0z" opacity="undefined" stroke-opacity="null" stroke-dasharray="null" stroke-width="6" fill="#ffffff"/>
  <path stroke="#ffaa56" id="svg_23" d="m170.60718,226.85985c-43.5593,-30.29918 -59.13147,-49.46584 -59.25888,-72.92917c-0.11467,-21.38979 19.1091,-42.0341 39.03363,-41.91521c9.95082,0.05964 31.28963,7.93221 38.84764,14.3307c3.80705,3.2239 5.61122,2.90603 14.08914,-2.48327c23.07161,-14.668 45.60011,-14.97575 60.19115,-0.82266c23.32147,22.61998 19.07596,49.63197 -12.20334,77.65102c-16.63226,14.89661 -52.94667,41.32372 -56.7868,41.32372c-1.16968,0 -11.93082,-6.81978 -23.91254,-15.15512l0,0z" opacity="undefined" fill-opacity="null" stroke-opacity="null" stroke-dasharray="null" stroke-width="6" fill="#ffffff"/>
 </g>
</svg>