<svg width="400" height="480" xmlns="http://www.w3.org/2000/svg">
 <!-- Created with Method Draw - http://github.com/duopixel/Method-Draw/ -->
 <g id="Layer_1">
  <title>Layer 1</title>
  <path stroke="#bf0000" id="svg_1" d="m148.99036,165.1142c10.9958,-30.50935 30.81967,-56.54999 47.685,-82.39165c19.61917,16.58495 36.56833,53.06891 51.315,78.48067c-13.15297,29.39163 -32.08557,56.16187 -49.14198,82.51935c-18.38727,-24.117 -34.11055,-51.67093 -49.85802,-78.60837l0,0z" opacity="undefined" fill-opacity="null" stroke-opacity="null" stroke-dasharray="null" stroke-width="5" fill="none"/>
  <path stroke="#bf0000" id="svg_3" d="m72.80965,276.40167c10.88399,-28.61203 30.50836,-53.03525 47.20332,-77.27414c19.42101,15.55713 36.19896,49.77267 50.79668,73.60605c-13.02011,27.56598 -31.76224,52.6712 -48.6456,77.39395c-18.20154,-22.62143 -33.76601,-48.45935 -49.3544,-73.72586l0,0z" opacity="undefined" fill-opacity="null" stroke-opacity="null" stroke-dasharray="null" stroke-width="5" fill="none"/>
  <path stroke="#bf0000" id="svg_4" d="m226.91464,274.93488c10.66295,-28.80615 29.88574,-53.39111 46.2403,-77.78732c19.02435,15.65695 35.4599,50.10229 49.7597,74.09198c-12.75458,27.75006 -31.11328,53.02155 -47.65326,77.90802c-17.83011,-22.76932 -33.07536,-48.7832 -48.34674,-74.21268l0,0z" opacity="undefined" fill-opacity="null" stroke-opacity="null" stroke-dasharray="null" stroke-width="5" fill="none"/>
  <line stroke-linecap="null" stroke-linejoin="null" id="svg_6" y2="105.5" x2="212" y1="105.5" x1="182" opacity="undefined" fill-opacity="null" stroke-opacity="null" stroke-dasharray="null" stroke-width="5" stroke="#bf0000" fill="none"/>
  <line stroke-linecap="null" stroke-linejoin="null" id="svg_7" y2="127.5" x2="227" y1="127.5" x1="171" opacity="undefined" fill-opacity="null" stroke-opacity="null" stroke-dasharray="null" stroke-width="5" stroke="#bf0000" fill="none"/>
  <line stroke-linecap="null" stroke-linejoin="null" id="svg_8" y2="148.5" x2="241" y1="150.5" x1="156" opacity="undefined" fill-opacity="null" stroke-opacity="null" stroke-dasharray="null" stroke-width="5" stroke="#bf0000" fill="none"/>
  <line stroke-linecap="null" stroke-linejoin="null" id="svg_9" y2="173.5" x2="241" y1="172.5" x1="154" opacity="undefined" fill-opacity="null" stroke-opacity="null" stroke-dasharray="null" stroke-width="5" stroke="#bf0000" fill="none"/>
  <line stroke-linecap="null" stroke-linejoin="null" id="svg_10" y2="194.5" x2="228" y1="193.5" x1="167" opacity="undefined" fill-opacity="null" stroke-opacity="null" stroke-dasharray="null" stroke-width="5" stroke="#bf0000" fill="none"/>
  <line stroke-linecap="null" stroke-linejoin="null" id="svg_11" y2="215.5" x2="216" y1="215.5" x1="179" opacity="undefined" fill-opacity="null" stroke-opacity="null" stroke-dasharray="null" stroke-width="5" stroke="#bf0000" fill="none"/>
  <line stroke-linecap="null" stroke-linejoin="null" id="svg_12" y2="223.5" x2="138" y1="223.5" x1="102" opacity="undefined" fill-opacity="null" stroke-opacity="null" stroke-dasharray="null" stroke-width="5" stroke="#bf0000" fill="none"/>
  <line stroke-linecap="null" stroke-linejoin="null" id="svg_13" y2="245.5" x2="153" y1="245.5" x1="89" opacity="undefined" fill-opacity="null" stroke-opacity="null" stroke-dasharray="null" stroke-width="5" stroke="#bf0000" fill="none"/>
  <line stroke-linecap="null" stroke-linejoin="null" id="svg_14" y2="265.5" x2="166" y1="265.5" x1="80" opacity="undefined" fill-opacity="null" stroke-opacity="null" stroke-dasharray="null" stroke-width="5" stroke="#bf0000" fill="none"/>
  <line stroke-linecap="null" stroke-linejoin="null" id="svg_15" y2="286.5" x2="163" y1="285.5" x1="81" opacity="undefined" fill-opacity="null" stroke-opacity="null" stroke-dasharray="null" stroke-width="5" stroke="#bf0000" fill="none"/>
  <line stroke-linecap="null" stroke-linejoin="null" id="svg_16" y2="312.5" x2="147" y1="312.5" x1="94" opacity="undefined" fill-opacity="null" stroke-opacity="null" stroke-dasharray="null" stroke-width="5" stroke="#bf0000" fill="none"/>
  <line stroke-linecap="null" stroke-linejoin="null" id="svg_17" y2="330.5" x2="135" y1="330.5" x1="108" opacity="undefined" fill-opacity="null" stroke-opacity="null" stroke-dasharray="null" stroke-width="5" stroke="#bf0000" fill="none"/>
  <line stroke-linecap="null" stroke-linejoin="null" id="svg_18" y2="217.5" x2="288" y1="217.5" x1="263" opacity="undefined" fill-opacity="null" stroke-opacity="null" stroke-dasharray="null" stroke-width="5" stroke="#bf0000" fill="none"/>
  <line stroke-linecap="null" stroke-linejoin="null" id="svg_19" y2="241.5" x2="304" y1="242.5" x1="244" opacity="undefined" fill-opacity="null" stroke-opacity="null" stroke-dasharray="null" stroke-width="5" stroke="#bf0000" fill="none"/>
  <line stroke-linecap="null" stroke-linejoin="null" id="svg_20" y2="262.5" x2="317" y1="264.5" x1="233" opacity="undefined" fill-opacity="null" stroke-opacity="null" stroke-dasharray="null" stroke-width="5" stroke="#bf0000" fill="none"/>
  <line stroke-linecap="null" stroke-linejoin="null" id="svg_21" y2="286.5" x2="315" y1="286.5" x1="235" opacity="undefined" fill-opacity="null" stroke-opacity="null" stroke-dasharray="null" stroke-width="5" stroke="#bf0000" fill="none"/>
  <line stroke-linecap="null" stroke-linejoin="null" id="svg_22" y2="305.5" x2="303" y1="305.5" x1="247" opacity="undefined" fill-opacity="null" stroke-opacity="null" stroke-dasharray="null" stroke-width="5" stroke="#bf0000" fill="none"/>
  <line stroke-linecap="null" stroke-linejoin="null" id="svg_23" y2="327.5" x2="288" y1="327.5" x1="261" opacity="undefined" fill-opacity="null" stroke-opacity="null" stroke-dasharray="null" stroke-width="5" stroke="#bf0000" fill="none"/>
 </g>
</svg>