<svg width="400" height="480" xmlns="http://www.w3.org/2000/svg">
 <!-- Created with Method Draw - http://github.com/duopixel/Method-Draw/ -->
 <g id="Layer_1">
  <title>Layer 1</title>
  <path id="svg_1" d="m66.77036,262.9689c11.77328,-37.52078 32.99859,-69.54593 51.05657,-101.32635c21.00664,20.39337 39.15494,65.26483 54.94344,96.51654c-14.08298,36.14612 -34.3541,69.06555 -52.61667,101.48346c-19.68764,-29.65964 -36.52242,-63.54587 -53.38334,-96.67365l0,0z" opacity="undefined" fill-opacity="null" stroke-opacity="null" stroke-dasharray="null" stroke-width="5" stroke="#bf0000" fill="none"/>
  <path stroke="#bf0000" id="svg_2" d="m234.83536,259.32565c11.43851,-37.71164 32.06491,-69.89717 49.61087,-101.8381c20.41266,20.4977 38.04977,65.59445 53.38913,97.004c-13.68283,36.32867 -33.38196,69.41437 -51.12595,101.996c-19.13019,-29.80917 -35.49112,-63.86661 -51.87405,-97.1619l0,0z" opacity="undefined" fill-opacity="null" stroke-opacity="null" stroke-dasharray="null" stroke-width="5" fill="none"/>
  <line stroke-linecap="null" stroke-linejoin="null" id="svg_3" y2="188.5" x2="134" y1="189.5" x1="103" opacity="undefined" fill-opacity="null" stroke-opacity="null" stroke-dasharray="null" stroke-width="5" stroke="#bf0000" fill="none"/>
  <line stroke-linecap="null" stroke-linejoin="null" id="svg_4" y2="210.5" x2="146" y1="212.5" x1="89" opacity="undefined" fill-opacity="null" stroke-opacity="null" stroke-dasharray="null" stroke-width="5" stroke="#bf0000" fill="none"/>
  <line stroke-linecap="null" stroke-linejoin="null" id="svg_5" y2="231.5" x2="157" y1="231.5" x1="80" opacity="undefined" fill-opacity="null" stroke-opacity="null" stroke-dasharray="null" stroke-width="5" stroke="#bf0000" fill="none"/>
  <line stroke-linecap="null" stroke-linejoin="null" id="svg_6" y2="259.5" x2="170" y1="262.5" x1="69" opacity="undefined" fill-opacity="null" stroke-opacity="null" stroke-dasharray="null" stroke-width="5" stroke="#bf0000" fill="none"/>
  <line stroke-linecap="null" stroke-linejoin="null" id="svg_7" y2="285.5" x2="160" y1="285.5" x1="80" opacity="undefined" fill-opacity="null" stroke-opacity="null" stroke-dasharray="null" stroke-width="5" stroke="#bf0000" fill="none"/>
  <line stroke-linecap="null" stroke-linejoin="null" id="svg_8" y2="307.5" x2="147" y1="308.5" x1="92" opacity="undefined" fill-opacity="null" stroke-opacity="null" stroke-dasharray="null" stroke-width="5" stroke="#bf0000" fill="none"/>
  <line stroke-linecap="null" stroke-linejoin="null" id="svg_9" y2="325.5" x2="135" y1="325.5" x1="104" opacity="undefined" fill-opacity="null" stroke-opacity="null" stroke-dasharray="null" stroke-width="5" stroke="#bf0000" fill="none"/>
  <line stroke-linecap="null" stroke-linejoin="null" id="svg_10" y2="188.5" x2="304" y1="189.5" x1="269" opacity="undefined" fill-opacity="null" stroke-opacity="null" stroke-dasharray="null" stroke-width="5" stroke="#bf0000" fill="none"/>
  <line stroke-linecap="null" stroke-linejoin="null" id="svg_11" y2="212.5" x2="317" y1="212.5" x1="257" opacity="undefined" fill-opacity="null" stroke-opacity="null" stroke-dasharray="null" stroke-width="5" stroke="#bf0000" fill="none"/>
  <line stroke-linecap="null" stroke-linejoin="null" id="svg_12" y2="235.5" x2="326" y1="235.5" x1="243" opacity="undefined" fill-opacity="null" stroke-opacity="null" stroke-dasharray="null" stroke-width="5" stroke="#bf0000" fill="none"/>
  <line stroke-linecap="null" stroke-linejoin="null" id="svg_13" y2="263.5" x2="332" y1="262.5" x1="240" opacity="undefined" fill-opacity="null" stroke-opacity="null" stroke-dasharray="null" stroke-width="5" stroke="#bf0000" fill="none"/>
  <line stroke-linecap="null" stroke-linejoin="null" id="svg_14" y2="284.5" x2="323" y1="283.5" x1="248" opacity="undefined" fill-opacity="null" stroke-opacity="null" stroke-dasharray="null" stroke-width="5" stroke="#bf0000" fill="none"/>
  <line stroke-linecap="null" stroke-linejoin="null" id="svg_15" y2="304.5" x2="310" y1="305.5" x1="261" opacity="undefined" fill-opacity="null" stroke-opacity="null" stroke-dasharray="null" stroke-width="5" stroke="#bf0000" fill="none"/>
  <line stroke-linecap="null" stroke-linejoin="null" id="svg_16" y2="326.5" x2="301" y1="327.5" x1="272" opacity="undefined" fill-opacity="null" stroke-opacity="null" stroke-dasharray="null" stroke-width="5" stroke="#bf0000" fill="none"/>
 </g>
</svg>