<svg width="400" height="480" xmlns="http://www.w3.org/2000/svg">
 <!-- Created with Method Draw - http://github.com/duopixel/Method-Draw/ -->
 <g id="Layer_1">
  <title>Layer 1</title>
  <path stroke="#ffaa56" id="svg_1" d="m153.89786,160.3033c13.32819,-33.92044 37.35715,-62.8711 57.80086,-91.60326c23.77995,18.43842 44.32439,59.00206 62.19914,87.25436c-15.94299,32.67813 -38.8916,62.4388 -59.56604,91.74564c-22.28761,-26.81299 -41.34709,-57.44707 -60.43396,-87.39674l0,0z" opacity="undefined" fill-opacity="null" stroke-opacity="null" stroke-dasharray="null" stroke-width="5" fill="#fff"/>
  <path id="svg_2" d="m67.38286,293.11316c13.32733,-33.92303 37.35718,-62.8696 57.79997,-91.60312c23.78084,18.43643 44.32527,59.00204 62.20003,87.25485c-15.94299,32.67755 -38.89253,62.43805 -59.56604,91.74515c-22.2876,-26.81296 -41.34705,-57.44751 -60.43396,-87.39688l0,0z" opacity="undefined" fill-opacity="null" stroke-opacity="null" stroke-dasharray="null" stroke-width="5" stroke="#ffaa56" fill="#fff"/>
  <path id="svg_3" d="m243.23285,297.27798c13.32776,-35.81235 37.35718,-66.38248 57.80173,-96.71793c23.77908,19.46887 44.32452,62.29825 62.19827,92.12683c-15.94116,34.50571 -38.88895,65.9288 -59.56787,96.87317c-22.28513,-28.31192 -41.3475,-60.65714 -60.43213,-92.28207l0,0z" opacity="undefined" fill-opacity="null" stroke-opacity="null" stroke-dasharray="null" stroke-width="5" stroke="#ffaa56" fill="#fff"/>
  <line stroke-linecap="null" stroke-linejoin="null" id="svg_5" y2="87" x2="231.5" y1="87" x1="196.5" opacity="undefined" fill-opacity="null" stroke-opacity="null" stroke-dasharray="null" stroke-width="5" stroke="#ffaa56" fill="none"/>
  <line stroke-linecap="null" stroke-linejoin="null" id="svg_6" y2="108" x2="242.5" y1="109" x1="181.5" opacity="undefined" fill-opacity="null" stroke-opacity="null" stroke-dasharray="null" stroke-width="5" stroke="#ffaa56" fill="none"/>
  <line stroke-linecap="null" stroke-linejoin="null" id="svg_7" y2="132" x2="258.5" y1="130" x1="170.5" opacity="undefined" fill-opacity="null" stroke-opacity="null" stroke-dasharray="null" stroke-width="5" stroke="#ffaa56" fill="none"/>
  <line stroke-linecap="null" stroke-linejoin="null" id="svg_8" y2="154" x2="273.5" y1="155" x1="158.5" opacity="undefined" fill-opacity="null" stroke-opacity="null" stroke-dasharray="null" stroke-width="5" stroke="#ffaa56" fill="none"/>
  <line stroke-linecap="null" stroke-linejoin="null" id="svg_9" y2="179" x2="259.5" y1="178" x1="167.5" opacity="undefined" fill-opacity="null" stroke-opacity="null" stroke-dasharray="null" stroke-width="5" stroke="#ffaa56" fill="none"/>
  <line stroke-linecap="null" stroke-linejoin="null" id="svg_10" y2="201" x2="245.5" y1="201" x1="181.5" opacity="undefined" fill-opacity="null" stroke-opacity="null" stroke-dasharray="null" stroke-width="5" stroke="#ffaa56" fill="none"/>
  <line stroke-linecap="null" stroke-linejoin="null" id="svg_11" y2="223" x2="226.5" y1="223" x1="200.5" opacity="undefined" fill-opacity="null" stroke-opacity="null" stroke-dasharray="null" stroke-width="5" stroke="#ffaa56" fill="none"/>
  <line stroke-linecap="null" stroke-linejoin="null" id="svg_12" y2="223" x2="142.5" y1="224" x1="110.5" opacity="undefined" fill-opacity="null" stroke-opacity="null" stroke-dasharray="null" stroke-width="5" stroke="#ffaa56" fill="none"/>
  <line stroke-linecap="null" stroke-linejoin="null" id="svg_13" y2="241" x2="156.5" y1="241" x1="99.5" opacity="undefined" fill-opacity="null" stroke-opacity="null" stroke-dasharray="null" stroke-width="5" stroke="#ffaa56" fill="none"/>
  <line stroke-linecap="null" stroke-linejoin="null" id="svg_14" y2="262" x2="171.5" y1="262" x1="82.5" opacity="undefined" fill-opacity="null" stroke-opacity="null" stroke-dasharray="null" stroke-width="5" stroke="#ffaa56" fill="none"/>
  <line stroke-linecap="null" stroke-linejoin="null" id="svg_15" y2="281" x2="185.5" y1="282" x1="71.5" opacity="undefined" fill-opacity="null" stroke-opacity="null" stroke-dasharray="null" stroke-width="5" stroke="#ffaa56" fill="none"/>
  <line stroke-linecap="null" stroke-linejoin="null" id="svg_16" y2="303" x2="180.5" y1="303" x1="77.5" opacity="undefined" fill-opacity="null" stroke-opacity="null" stroke-dasharray="null" stroke-width="5" stroke="#ffaa56" fill="none"/>
  <line stroke-linecap="null" stroke-linejoin="null" id="svg_17" y2="325" x2="163.5" y1="325" x1="91.5" opacity="undefined" fill-opacity="null" stroke-opacity="null" stroke-dasharray="null" stroke-width="5" stroke="#ffaa56" fill="none"/>
  <line stroke-linecap="null" stroke-linejoin="null" id="svg_18" y2="344" x2="153.5" y1="344" x1="103.5" opacity="undefined" fill-opacity="null" stroke-opacity="null" stroke-dasharray="null" stroke-width="5" stroke="#ffaa56" fill="none"/>
  <line stroke-linecap="null" stroke-linejoin="null" id="svg_19" y2="222" x2="317.5" y1="223" x1="288.5" opacity="undefined" fill-opacity="null" stroke-opacity="null" stroke-dasharray="null" stroke-width="5" stroke="#ffaa56" fill="none"/>
  <line stroke-linecap="null" stroke-linejoin="null" id="svg_20" y2="244" x2="332.5" y1="244" x1="272.5" opacity="undefined" fill-opacity="null" stroke-opacity="null" stroke-dasharray="null" stroke-width="5" stroke="#ffaa56" fill="none"/>
  <line stroke-linecap="null" stroke-linejoin="null" id="svg_21" y2="264" x2="344.5" y1="265" x1="260.5" opacity="undefined" fill-opacity="null" stroke-opacity="null" stroke-dasharray="null" stroke-width="5" stroke="#ffaa56" fill="none"/>
  <line stroke-linecap="null" stroke-linejoin="null" id="svg_22" y2="290" x2="361.5" y1="290" x1="244.5" opacity="undefined" fill-opacity="null" stroke-opacity="null" stroke-dasharray="null" stroke-width="5" stroke="#ffaa56" fill="none"/>
  <line stroke-linecap="null" stroke-linejoin="null" id="svg_23" y2="315" x2="349.5" y1="314" x1="257.5" opacity="undefined" fill-opacity="null" stroke-opacity="null" stroke-dasharray="null" stroke-width="5" stroke="#ffaa56" fill="none"/>
  <line stroke-linecap="null" stroke-linejoin="null" id="svg_24" y2="334" x2="338.5" y1="333" x1="268.5" opacity="undefined" fill-opacity="null" stroke-opacity="null" stroke-dasharray="null" stroke-width="5" stroke="#ffaa56" fill="none"/>
  <line stroke-linecap="null" stroke-linejoin="null" id="svg_25" y2="352" x2="326.5" y1="353" x1="281.5" opacity="undefined" fill-opacity="null" stroke-opacity="null" stroke-dasharray="null" stroke-width="5" stroke="#ffaa56" fill="none"/>
  <line stroke-linecap="null" stroke-linejoin="null" id="svg_26" y2="367" x2="318.5" y1="367" x1="289.5" opacity="undefined" fill-opacity="null" stroke-opacity="null" stroke-dasharray="null" stroke-width="5" stroke="#ffaa56" fill="none"/>
 </g>
</svg>