<svg width="400" height="480" xmlns="http://www.w3.org/2000/svg">
 <!-- Created with Method Draw - http://github.com/duopixel/Method-Draw/ -->
 <g id="Layer_1">
  <title>Layer 1</title>
  <path stroke="#ffaa56" id="svg_1" d="m45.40287,262.56763c13.66145,-44.15462 38.29111,-81.83797 59.24495,-119.23758c24.37537,23.99966 45.43342,76.80154 63.75504,113.57626c-16.34157,42.53687 -39.86389,81.27539 -61.05519,119.42374c-22.84478,-34.90228 -42.37978,-74.7785 -61.9448,-113.76242l0,0z" opacity="undefined" fill-opacity="null" stroke-opacity="null" stroke-dasharray="null" stroke-width="5" fill="#fff"/>
  <path id="svg_2" d="m214.17786,260.99289c14.10568,-44.72348 39.53815,-82.89314 61.17456,-120.77284c25.16513,24.30917 46.90967,77.79048 65.82544,115.03993c-16.87106,43.08331 -41.16028,82.32053 -63.04099,120.96008c-23.58551,-35.35181 -43.75682,-75.74142 -63.95901,-115.22717l0,0z" opacity="undefined" fill-opacity="null" stroke-opacity="null" stroke-dasharray="null" stroke-width="5" stroke="#ffaa56" fill="#fff"/>
  <line stroke-linecap="null" stroke-linejoin="null" id="svg_3" y2="176" x2="125.5" y1="178" x1="85.5" opacity="undefined" fill-opacity="null" stroke-opacity="null" stroke-dasharray="null" stroke-width="5" stroke="#ffaa56" fill="none"/>
  <line stroke-linecap="null" stroke-linejoin="null" id="svg_4" y2="210" x2="143.5" y1="212" x1="68.5" opacity="undefined" fill-opacity="null" stroke-opacity="null" stroke-dasharray="null" stroke-width="5" stroke="#ffaa56" fill="none"/>
  <line stroke-linecap="null" stroke-linejoin="null" id="svg_5" y2="241" x2="160.5" y1="245" x1="52.5" opacity="undefined" fill-opacity="null" stroke-opacity="null" stroke-dasharray="null" stroke-width="5" stroke="#ffaa56" fill="none"/>
  <line stroke-linecap="null" stroke-linejoin="null" id="svg_6" y2="277" x2="159.5" y1="277" x1="52.5" opacity="undefined" fill-opacity="null" stroke-opacity="null" stroke-dasharray="null" stroke-width="5" stroke="#ffaa56" fill="none"/>
  <line stroke-linecap="null" stroke-linejoin="null" id="svg_7" y2="306" x2="145.5" y1="306" x1="65.5" opacity="undefined" fill-opacity="null" stroke-opacity="null" stroke-dasharray="null" stroke-width="5" stroke="#ffaa56" fill="none"/>
  <line stroke-linecap="null" stroke-linejoin="null" id="svg_8" y2="335" x2="126.5" y1="336" x1="87.5" opacity="undefined" fill-opacity="null" stroke-opacity="null" stroke-dasharray="null" stroke-width="5" stroke="#ffaa56" fill="none"/>
  <line stroke-linecap="null" stroke-linejoin="null" id="svg_9" y2="166" x2="292.5" y1="166" x1="264.5" opacity="undefined" fill-opacity="null" stroke-opacity="null" stroke-dasharray="null" stroke-width="5" stroke="#ffaa56" fill="none"/>
  <line stroke-linecap="null" stroke-linejoin="null" id="svg_10" y2="188" x2="304.5" y1="188" x1="247.5" opacity="undefined" fill-opacity="null" stroke-opacity="null" stroke-dasharray="null" stroke-width="5" stroke="#ffaa56" fill="none"/>
  <line stroke-linecap="null" stroke-linejoin="null" id="svg_11" y2="214" x2="320.5" y1="213" x1="237.5" opacity="undefined" fill-opacity="null" stroke-opacity="null" stroke-dasharray="null" stroke-width="5" stroke="#ffaa56" fill="none"/>
  <line stroke-linecap="null" stroke-linejoin="null" id="svg_12" y2="242" x2="331.5" y1="241" x1="225.5" opacity="undefined" fill-opacity="null" stroke-opacity="null" stroke-dasharray="null" stroke-width="5" stroke="#ffaa56" fill="none"/>
  <line stroke-linecap="null" stroke-linejoin="null" id="svg_13" y2="268" x2="332.5" y1="267" x1="220.5" opacity="undefined" fill-opacity="null" stroke-opacity="null" stroke-dasharray="null" stroke-width="5" stroke="#ffaa56" fill="none"/>
  <line stroke-linecap="null" stroke-linejoin="null" id="svg_14" y2="299" x2="319.5" y1="297" x1="234.5" opacity="undefined" fill-opacity="null" stroke-opacity="null" stroke-dasharray="null" stroke-width="5" stroke="#ffaa56" fill="none"/>
  <line stroke-linecap="null" stroke-linejoin="null" id="svg_15" y2="327" x2="307.5" y1="326" x1="250.5" opacity="undefined" fill-opacity="null" stroke-opacity="null" stroke-dasharray="null" stroke-width="5" stroke="#ffaa56" fill="none"/>
  <line stroke-linecap="null" stroke-linejoin="null" id="svg_16" y2="346" x2="294.5" y1="345" x1="259.5" opacity="undefined" fill-opacity="null" stroke-opacity="null" stroke-dasharray="null" stroke-width="5" stroke="#ffaa56" fill="none"/>
 </g>
</svg>