<svg width="400" height="480" xmlns="http://www.w3.org/2000/svg">
 <!-- Created with Method Draw - http://github.com/duopixel/Method-Draw/ -->
 <g id="Layer_1">
  <title>Layer 1</title>
  <path stroke="#ffaa56" id="svg_1" d="m169.33768,300.45514c-52.4278,-39.85376 -71.17211,-65.06596 -71.32466,-95.93013c-0.13858,-28.13547 23.0016,-55.29001 46.9814,-55.13425c11.9751,0.07828 37.66068,10.43439 46.75696,18.85184c4.58252,4.2392 6.75261,3.82079 16.95575,-3.26859c27.76929,-19.29277 54.88678,-19.69893 72.44797,-1.08104c28.06757,29.75314 22.95792,65.28435 -14.6897,102.14188c-20.01505,19.59351 -63.72516,54.35526 -68.34715,54.35526c-1.40628,0 -14.35803,-8.96991 -28.78056,-19.93497l0,0z" opacity="undefined" fill-opacity="null" stroke-opacity="null" stroke-dasharray="null" stroke-width="5" fill="#fff"/>
  <line stroke-linecap="null" stroke-linejoin="null" id="svg_2" y2="173" x2="287.5" y1="175" x1="104.5" opacity="undefined" fill-opacity="null" stroke-opacity="null" stroke-dasharray="null" stroke-width="5" stroke="#ffaa56" fill="none"/>
  <line stroke-linecap="null" stroke-linejoin="null" id="svg_3" y2="202" x2="300.5" y1="207" x1="97.5" opacity="undefined" fill-opacity="null" stroke-opacity="null" stroke-dasharray="null" stroke-width="5" stroke="#ffaa56" fill="none"/>
  <line stroke-linecap="null" stroke-linejoin="null" id="svg_4" y2="243" x2="282.5" y1="241" x1="109.5" opacity="undefined" fill-opacity="null" stroke-opacity="null" stroke-dasharray="null" stroke-width="5" stroke="#ffaa56" fill="none"/>
  <line stroke-linecap="null" stroke-linejoin="null" id="svg_5" y2="272" x2="256.5" y1="271" x1="134.5" opacity="undefined" fill-opacity="null" stroke-opacity="null" stroke-dasharray="null" stroke-width="5" stroke="#ffaa56" fill="none"/>
  <line stroke-linecap="null" stroke-linejoin="null" id="svg_6" y2="298" x2="225.5" y1="298" x1="165.5" opacity="undefined" fill-opacity="null" stroke-opacity="null" stroke-dasharray="null" stroke-width="5" stroke="#ffaa56" fill="none"/>
 </g>
</svg>