<svg width="400" height="480" xmlns="http://www.w3.org/2000/svg">
 <!-- Created with Method Draw - http://github.com/duopixel/Method-Draw/ -->
 <g id="Layer_1">
  <title>Layer 1</title>
  <path id="svg_1" d="m182.28925,225.85316c-38.60309,-25.40407 -52.40546,-41.47571 -52.51649,-61.14809c-0.10162,-17.93555 16.93581,-35.24454 34.5927,-35.14464c8.817,0.04979 27.73035,6.65105 34.42751,12.0157c3.37486,2.7027 4.97148,2.43657 12.48613,-2.08232c20.4454,-12.29857 40.41238,-12.55624 53.3443,-0.68939c20.66699,18.96582 16.90454,41.61459 -10.81589,65.10747c-14.73763,12.4901 -46.92209,34.64812 -50.32631,34.64812c-1.0356,0 -10.57114,-5.71811 -21.19194,-12.70685l0,0z" opacity="undefined" fill-opacity="null" stroke-opacity="null" stroke-dasharray="null" stroke-width="5" stroke="#ffaa56" fill="#fff"/>
  <path id="svg_2" d="m98.97101,369.57428c-36.51626,-24.47055 -49.57236,-39.9509 -49.6781,-58.90457c-0.09666,-17.27469 16.02012,-33.95059 32.72274,-33.85449c8.34055,0.04822 26.23148,6.4061 32.56704,11.57471c3.19153,2.60507 4.70398,2.34872 11.81068,-2.00592c19.34142,-11.84692 38.22893,-12.09686 50.46111,-0.6633c19.54964,18.27121 15.99069,40.08633 -10.23158,62.7178c-13.94107,12.03232 -44.38555,33.37628 -47.60538,33.37628c-0.98003,0 -10.00072,-5.50821 -20.04649,-12.24051l0,0z" opacity="undefined" fill-opacity="null" stroke-opacity="null" stroke-dasharray="null" stroke-width="5" stroke="#ffaa56" fill="#fff"/>
  <path id="svg_3" d="m272.09497,373.78635c-38.08182,-25.63629 -51.6962,-41.85703 -51.80719,-61.70996c-0.10025,-18.10065 16.70798,-35.56677 34.12509,-35.46606c8.69904,0.05035 27.3569,6.71051 33.96259,12.12524c3.33023,2.72919 4.90503,2.46063 12.31787,-2.10144c20.16965,-12.41058 39.86639,-12.67242 52.62308,-0.69489c20.38724,19.13788 16.67572,41.9953 -10.6694,65.70538c-14.53854,12.60437 -46.28757,34.96527 -49.64667,34.96527c-1.02087,0 -10.42847,-5.77057 -20.90536,-12.82355l0,0z" opacity="undefined" fill-opacity="null" stroke-opacity="null" stroke-dasharray="null" stroke-width="5" stroke="#ffaa56" fill="#fff"/>
  <line stroke-linecap="null" stroke-linejoin="null" id="svg_4" y2="148" x2="269.5" y1="147" x1="135.5" opacity="undefined" fill-opacity="null" stroke-opacity="null" stroke-dasharray="null" stroke-width="5" stroke="#ffaa56" fill="none"/>
  <line stroke-linecap="null" stroke-linejoin="null" id="svg_5" y2="170" x2="274.5" y1="171" x1="129.5" opacity="undefined" fill-opacity="null" stroke-opacity="null" stroke-dasharray="null" stroke-width="5" stroke="#ffaa56" fill="none"/>
  <line stroke="#ffaa56" stroke-linecap="null" stroke-linejoin="null" id="svg_6" y2="190" x2="263.5" y1="193" x1="143.5" opacity="undefined" fill-opacity="null" stroke-opacity="null" stroke-dasharray="null" stroke-width="5" fill="none"/>
  <line stroke-linecap="null" stroke-linejoin="null" id="svg_7" y2="218" x2="234.5" y1="219" x1="175.5" opacity="undefined" fill-opacity="null" stroke-opacity="null" stroke-dasharray="null" stroke-width="5" stroke="#ffaa56" fill="none"/>
  <line stroke-linecap="null" stroke-linejoin="null" id="svg_8" y2="297" x2="182.5" y1="298" x1="55.5" opacity="undefined" fill-opacity="null" stroke-opacity="null" stroke-dasharray="null" stroke-width="5" stroke="#ffaa56" fill="none"/>
  <line stroke-linecap="null" stroke-linejoin="null" id="svg_9" y2="319" x2="186.5" y1="320" x1="51.5" opacity="undefined" fill-opacity="null" stroke-opacity="null" stroke-dasharray="null" stroke-width="5" stroke="#ffaa56" fill="none"/>
  <line stroke-linecap="null" stroke-linejoin="null" id="svg_10" y2="340" x2="168.5" y1="342" x1="65.5" opacity="undefined" fill-opacity="null" stroke-opacity="null" stroke-dasharray="null" stroke-width="5" stroke="#ffaa56" fill="none"/>
  <line stroke-linecap="null" stroke-linejoin="null" id="svg_11" y2="361" x2="143.5" y1="361" x1="90.5" opacity="undefined" fill-opacity="null" stroke-opacity="null" stroke-dasharray="null" stroke-width="5" stroke="#ffaa56" fill="none"/>
  <line stroke-linecap="null" stroke-linejoin="null" id="svg_12" y2="295" x2="360.5" y1="296" x1="225.5" opacity="undefined" fill-opacity="null" stroke-opacity="null" stroke-dasharray="null" stroke-width="5" stroke="#ffaa56" fill="none"/>
  <line stroke-linecap="null" stroke-linejoin="null" id="svg_13" y2="318" x2="369.5" y1="318" x1="221.5" opacity="undefined" fill-opacity="null" stroke-opacity="null" stroke-dasharray="null" stroke-width="5" stroke="#ffaa56" fill="none"/>
  <line stroke-linecap="null" stroke-linejoin="null" id="svg_14" y2="339" x2="354.5" y1="339" x1="232.5" opacity="undefined" fill-opacity="null" stroke-opacity="null" stroke-dasharray="null" stroke-width="5" stroke="#ffaa56" fill="none"/>
  <line stroke-linecap="null" stroke-linejoin="null" id="svg_15" y2="358" x2="331.5" y1="358" x1="249.5" opacity="undefined" fill-opacity="null" stroke-opacity="null" stroke-dasharray="null" stroke-width="5" stroke="#ffaa56" fill="none"/>
  <line stroke-linecap="null" stroke-linejoin="null" id="svg_16" y2="379" x2="303.5" y1="378" x1="303.5" opacity="undefined" fill-opacity="null" stroke-opacity="null" stroke-dasharray="null" stroke-width="5" stroke="#ffaa56" fill="none"/>
 </g>
</svg>