<svg width="400" height="480" xmlns="http://www.w3.org/2000/svg">
 <!-- Created with Method Draw - http://github.com/duopixel/Method-Draw/ -->
 <g id="Layer_1">
  <title>Layer 1</title>
  <ellipse id="svg_26" cy="219" cx="198.5" opacity="undefined" fill-opacity="null" stroke-opacity="null" stroke-dasharray="null" stroke-width="6" stroke="#e50d26" fill="#ffffff"/>
  <path stroke="#e50d26" id="svg_28" d="m178.23206,184.78159c-34.1692,-25.63777 -46.38649,-41.85522 -46.48444,-61.71008c-0.09195,-18.0991 14.98979,-35.56699 30.61925,-35.4659c7.80374,0.04955 24.54445,6.71102 30.47322,12.12591c2.98633,2.72739 4.40152,2.45798 11.04987,-2.10159c18.1001,-12.41151 35.7724,-12.67207 47.21802,-0.69656c18.29385,19.14063 14.96368,41.99747 -9.57263,65.70589c-13.04689,12.60457 -41.53328,34.96593 -44.54552,34.96593c-0.91754,0 -9.3589,-5.76968 -18.75777,-12.82359l0,0z" opacity="undefined" fill-opacity="null" stroke-opacity="null" stroke-dasharray="null" stroke-width="6" fill="#f70404"/>
  <path id="svg_29" d="m86.56193,353.78812c-35.47325,-25.87326 -48.15632,-42.24136 -48.25904,-62.27441c-0.09362,-18.26178 15.56274,-35.89008 31.78822,-35.78845c8.10207,0.05081 25.48187,6.7749 31.63594,12.23886c3.1009,2.75061 4.56958,2.47961 11.47324,-2.12393c18.78921,-12.52002 37.13665,-12.78763 49.01963,-0.7012c18.99115,19.31189 15.53351,42.37704 -9.93936,66.30222c-13.54268,12.71988 -43.11753,35.28363 -46.2454,35.28363c-0.95162,0 -9.71444,-5.82303 -19.47322,-12.93671l0,0z" opacity="undefined" fill-opacity="null" stroke-opacity="null" stroke-dasharray="null" stroke-width="6" stroke="#e50d26" fill="#f70404"/>
  <path id="svg_30" d="m273.93665,354.7514c-35.73436,-25.63712 -48.50929,-41.85739 -48.61382,-61.71021c-0.09616,-18.09723 15.67857,-35.56668 32.02171,-35.466c8.16119,0.05035 25.66885,6.71051 31.8692,12.12524c3.12314,2.72919 4.60315,2.46063 11.55597,-2.10144c18.9285,-12.41055 37.41052,-12.67239 49.38037,-0.69489c19.13174,19.13788 15.64905,41.99515 -10.01126,65.70474c-13.64249,12.60556 -43.43509,34.96591 -46.5853,34.96591c-0.95969,0 -9.78552,-5.77045 -19.61688,-12.82336l0,0z" opacity="undefined" fill-opacity="null" stroke-opacity="null" stroke-dasharray="null" stroke-width="6" stroke="#e50d26" fill="#f70404"/>
 </g>
</svg>