<svg width="400" height="480" xmlns="http://www.w3.org/2000/svg">
 <!-- Created with Method Draw - http://github.com/duopixel/Method-Draw/ -->
 <g id="Layer_1">
  <title>Layer 1</title>
  <path id="svg_9" d="m183.04103,210.38692c-37.56081,-26.33627 -50.98943,-42.99762 -51.09819,-63.39211c-0.09998,-18.59389 16.47847,-36.53815 33.65773,-36.43424c8.57941,0.05173 26.98203,6.89477 33.49796,12.45634c3.2838,2.80192 4.83838,2.52604 12.14757,-2.15875c19.89522,-12.74991 39.3222,-13.01717 51.90253,-0.7147c20.10889,19.66168 16.44778,43.14212 -10.52367,67.49709c-14.3381,12.94836 -45.65363,35.91957 -48.9649,35.91957c-1.00746,0 -10.28644,-5.92795 -20.61902,-13.1732l0,0z" opacity="undefined" stroke-opacity="null" stroke-dasharray="null" stroke-width="6" stroke="#e50d26" fill="#f70707"/>
  <path stroke="#e50d26" id="svg_12" d="m178.88498,387.05539c-37.56006,-27.26828 -50.9873,-44.51974 -51.09717,-65.63715c-0.09888,-19.24899 16.47925,-37.83005 33.65744,-37.72293c8.57814,0.05579 26.98042,7.14099 33.49756,12.9003c3.2849,2.89929 4.83836,2.61365 12.14874,-2.23874c19.89392,-13.19781 39.31989,-13.47632 51.90155,-0.73911c20.10931,20.35693 16.44864,44.66748 -10.5228,69.88626c-14.33932,13.40576 -45.65472,37.19083 -48.96599,37.19083c-1.00854,0 -10.28542,-6.13583 -20.61934,-13.63947l0,0z" opacity="undefined" stroke-opacity="null" stroke-dasharray="null" stroke-width="6" fill="#f70707"/>
 </g>
</svg>