<svg width="400" height="480" xmlns="http://www.w3.org/2000/svg">
 <!-- Created with Method Draw - http://github.com/duopixel/Method-Draw/ -->
 <g id="Layer_1">
  <title>Layer 1</title>
  <path id="svg_19" d="m-448.70868,-96.60818c-0.38873,-0.46614 -0.52774,-0.76101 -0.52887,-1.12198c-0.00101,-0.32908 0.17056,-0.64669 0.34836,-0.64485c0.08878,0.00091 0.27924,0.12202 0.34668,0.22047c0.034,0.04961 0.05008,0.04471 0.12573,-0.03821c0.2059,-0.22565 0.40695,-0.23038 0.53717,-0.01265c0.20813,0.34799 0.17023,0.76357 -0.10892,1.19463c-0.14841,0.22918 -0.4725,0.63576 -0.50677,0.63576c-0.01044,0 -0.10645,-0.10493 -0.21338,-0.23316l0,0z" opacity="undefined" fill-opacity="null" stroke-opacity="null" stroke-dasharray="null" stroke-width="6" stroke="#ffaa56" fill="#ffaa56"/>
  <ellipse stroke="#ffaa56" ry="112" rx="48" id="svg_27" cy="239" cx="128.5" opacity="undefined" fill-opacity="null" stroke-opacity="null" stroke-dasharray="null" stroke-width="6" fill="#ffffff"/>
  <ellipse id="svg_28" cy="210" cx="392.5" opacity="undefined" fill-opacity="null" stroke-opacity="null" stroke-dasharray="null" stroke-width="6" stroke="#ffaa56" fill="#ffffff"/>
  <ellipse ry="111" rx="48" id="svg_30" cy="239" cx="284.5" opacity="undefined" fill-opacity="null" stroke-opacity="null" stroke-dasharray="null" stroke-width="6" stroke="#ffaa56" fill="#ffffff"/>
  <ellipse id="svg_31" cy="246" cx="192.5" opacity="undefined" fill-opacity="null" stroke-opacity="null" stroke-dasharray="null" stroke-width="6" stroke="#ffaa56" fill="#ffffff"/>
  <ellipse id="svg_32" cy="138" cx="323.5" opacity="undefined" fill-opacity="null" stroke-opacity="null" stroke-dasharray="null" stroke-width="6" stroke="#ffaa56" fill="#ffffff"/>
 </g>
</svg>