<svg width="400" height="480" xmlns="http://www.w3.org/2000/svg">
 <!-- Created with Method Draw - http://github.com/duopixel/Method-Draw/ -->
 <g id="Layer_1">
  <title>Layer 1</title>
  <path id="svg_1" d="m178.87714,190.77614c-31.29999,-20.27808 -42.49139,-33.10463 -42.58194,-48.80666c-0.08263,-14.3159 13.7319,-28.13124 28.04887,-28.05159c7.14928,0.04115 22.48315,5.30858 27.91406,9.59114c2.73558,2.15721 4.03192,1.94348 10.12239,-1.66338c16.57961,-9.81589 32.76811,-10.02165 43.2527,-0.54959c16.75752,15.1377 13.70665,33.21597 -8.76936,51.96587c-11.95036,9.96967 -38.04475,27.65562 -40.80447,27.65562c-0.84016,0 -8.57266,-4.56454 -17.18225,-10.14142l0,0z" opacity="undefined" fill-opacity="null" stroke-opacity="null" stroke-dasharray="null" stroke-width="5" stroke="#bf0000" fill="none"/>
  <path stroke="#bf0000" id="svg_2" d="m113.82721,319.15994c-31.03979,-20.27618 -42.13705,-33.10355 -42.22694,-48.80624c-0.08262,-14.31506 13.61758,-28.13081 27.81433,-28.05116c7.0889,0.03973 22.29768,5.3082 27.6815,9.59076c2.71367,2.15854 3.99924,1.9444 10.03958,-1.66205c16.44102,-9.81694 32.49442,-10.02138 42.89166,-0.54959c16.61772,15.13719 13.59213,33.2144 -8.6967,51.9659c-11.84897,9.9678 -37.72766,27.65463 -40.46408,27.65463c-0.83252,0 -8.50061,-4.56589 -17.03935,-10.14224l0,0z" opacity="undefined" fill-opacity="null" stroke-opacity="null" stroke-dasharray="null" stroke-width="5" fill="none"/>
  <path stroke="#bf0000" id="svg_3" d="m269.3035,314.73605c-30.51755,-20.97583 -41.42905,-34.24597 -41.51831,-50.49023c-0.08034,-14.80685 13.3894,-29.10049 27.34863,-29.0181c6.96786,0.04237 21.91977,5.49347 27.21494,9.9211c2.6687,2.23297 3.93121,2.01324 9.87057,-1.7195c16.164,-10.15324 31.9476,-10.36748 42.1701,-0.56854c16.33887,15.65909 13.36459,34.35959 -8.54971,53.75864c-11.65079,10.31241 -37.09454,28.60794 -39.7847,28.60794c-0.81976,0 -8.35721,-4.71927 -16.75153,-10.4913l0,0z" opacity="undefined" fill-opacity="null" stroke-opacity="null" stroke-dasharray="null" stroke-width="5" fill="none"/>
  <line stroke-linecap="null" stroke-linejoin="null" id="svg_4" y2="132.5" x2="253" y1="130.5" x1="141" opacity="undefined" fill-opacity="null" stroke-opacity="null" stroke-dasharray="null" stroke-width="5" stroke="#bf0000" fill="none"/>
  <line stroke-linecap="null" stroke-linejoin="null" id="svg_5" y2="148.5" x2="255" y1="148.5" x1="139" opacity="undefined" fill-opacity="null" stroke-opacity="null" stroke-dasharray="null" stroke-width="5" stroke="#bf0000" fill="none"/>
  <line stroke-linecap="null" stroke-linejoin="null" id="svg_6" y2="166.5" x2="241" y1="164.5" x1="149" opacity="undefined" fill-opacity="null" stroke-opacity="null" stroke-dasharray="null" stroke-width="5" stroke="#bf0000" fill="none"/>
  <line stroke-linecap="null" stroke-linejoin="null" id="svg_7" y2="181.5" x2="221" y1="179.5" x1="166" opacity="undefined" fill-opacity="null" stroke-opacity="null" stroke-dasharray="null" stroke-width="5" stroke="#bf0000" fill="none"/>
  <line stroke-linecap="null" stroke-linejoin="null" id="svg_8" y2="263.5" x2="188" y1="261.5" x1="75" opacity="undefined" fill-opacity="null" stroke-opacity="null" stroke-dasharray="null" stroke-width="5" stroke="#bf0000" fill="none"/>
  <line stroke-linecap="null" stroke-linejoin="null" id="svg_9" y2="281.5" x2="186" y1="282.5" x1="77" opacity="undefined" fill-opacity="null" stroke-opacity="null" stroke-dasharray="null" stroke-width="5" stroke="#bf0000" fill="none"/>
  <line stroke-linecap="null" stroke-linejoin="null" id="svg_10" y2="297.5" x2="170" y1="296.5" x1="87" opacity="undefined" fill-opacity="null" stroke-opacity="null" stroke-dasharray="null" stroke-width="5" stroke="#bf0000" fill="none"/>
  <line stroke-linecap="null" stroke-linejoin="null" id="svg_11" y2="315.5" x2="149" y1="315.5" x1="115" opacity="undefined" fill-opacity="null" stroke-opacity="null" stroke-dasharray="null" stroke-width="5" stroke="#bf0000" fill="none"/>
  <line stroke-linecap="null" stroke-linejoin="null" id="svg_12" y2="250.5" x2="341" y1="250.5" x1="234" opacity="undefined" fill-opacity="null" stroke-opacity="null" stroke-dasharray="null" stroke-width="5" stroke="#bf0000" fill="none"/>
  <line stroke-linecap="null" stroke-linejoin="null" id="svg_13" y2="269.5" x2="345" y1="269.5" x1="229" opacity="undefined" fill-opacity="null" stroke-opacity="null" stroke-dasharray="null" stroke-width="5" stroke="#bf0000" fill="none"/>
  <line stroke-linecap="null" stroke-linejoin="null" id="svg_14" y2="289.5" x2="331" y1="290.5" x1="240" opacity="undefined" fill-opacity="null" stroke-opacity="null" stroke-dasharray="null" stroke-width="5" stroke="#bf0000" fill="none"/>
  <line stroke-linecap="null" stroke-linejoin="null" id="svg_15" y2="307.5" x2="307" y1="307.5" x1="264" opacity="undefined" fill-opacity="null" stroke-opacity="null" stroke-dasharray="null" stroke-width="5" stroke="#bf0000" fill="none"/>
 </g>
</svg>