<svg width="400" height="480" xmlns="http://www.w3.org/2000/svg">
 <!-- Created with Method Draw - http://github.com/duopixel/Method-Draw/ -->
 <g id="Layer_1">
  <title>Layer 1</title>
  <path id="svg_1" d="m175.06648,214.53735c-40.1678,-25.17188 -54.52939,-41.09488 -54.64612,-60.58839c-0.10651,-17.76933 17.6232,-34.92032 35.99519,-34.82095c9.17413,0.04894 28.85457,6.58916 35.823,11.90508c3.51157,2.67792 5.17526,2.41425 12.99225,-2.06323c21.2757,-12.18573 42.05202,-12.44144 55.50745,-0.68352c21.50439,18.79202 17.58957,41.23286 -11.2549,64.51047c-15.33511,12.37521 -48.82439,34.33078 -52.36562,34.33078c-1.07718,0 -11.00053,-5.66568 -22.05125,-12.59024l0,0z" opacity="undefined" fill-opacity="null" stroke-opacity="null" stroke-dasharray="null" stroke-width="5" stroke="#bf0000" fill="none"/>
  <path id="svg_2" d="m179.87807,352.30426c-38.60333,-25.64023 -52.40601,-41.85779 -52.51761,-61.70731c-0.10162,-18.10062 16.93588,-35.57007 34.59354,-35.46936c8.81729,0.05035 27.72955,6.7139 34.42653,12.12857c3.37505,2.72583 4.97279,2.45728 12.48621,-2.1048c20.44682,-12.4072 40.41342,-12.66904 53.34344,-0.69482c20.66919,19.13785 16.90463,41.99854 -10.81627,65.70206c-14.73755,12.60526 -46.92186,34.96857 -50.32513,34.96857c-1.0343,0 -10.57224,-5.76981 -21.1907,-12.82291l0,0z" opacity="undefined" fill-opacity="null" stroke-opacity="null" stroke-dasharray="null" stroke-width="5" stroke="#bf0000" fill="none"/>
  <line stroke-linecap="null" stroke-linejoin="null" id="svg_3" y2="138.5" x2="266" y1="135.5" x1="127" opacity="undefined" fill-opacity="null" stroke-opacity="null" stroke-dasharray="null" stroke-width="5" stroke="#bf0000" fill="none"/>
  <line stroke-linecap="null" stroke-linejoin="null" id="svg_4" y2="158.5" x2="276" y1="160.5" x1="122" opacity="undefined" fill-opacity="null" stroke-opacity="null" stroke-dasharray="null" stroke-width="5" stroke="#bf0000" fill="none"/>
  <line stroke-linecap="null" stroke-linejoin="null" id="svg_5" y2="188.5" x2="252" y1="190.5" x1="144" opacity="undefined" fill-opacity="null" stroke-opacity="null" stroke-dasharray="null" stroke-width="5" stroke="#bf0000" fill="none"/>
  <line stroke-linecap="null" stroke-linejoin="null" id="svg_6" y2="211.5" x2="221" y1="211.5" x1="175" opacity="undefined" fill-opacity="null" stroke-opacity="null" stroke-dasharray="null" stroke-width="5" stroke="#bf0000" fill="none"/>
  <line stroke-linecap="null" stroke-linejoin="null" id="svg_7" y2="283.5" x2="273" y1="284.5" x1="133" opacity="undefined" fill-opacity="null" stroke-opacity="null" stroke-dasharray="null" stroke-width="5" stroke="#bf0000" fill="none"/>
  <line stroke-linecap="null" stroke-linejoin="null" id="svg_8" y2="308.5" x2="270" y1="308.5" x1="130" opacity="undefined" fill-opacity="null" stroke-opacity="null" stroke-dasharray="null" stroke-width="5" stroke="#bf0000" fill="none"/>
  <line stroke-linecap="null" stroke-linejoin="null" id="svg_9" y2="330.5" x2="245" y1="332.5" x1="154" opacity="undefined" fill-opacity="null" stroke-opacity="null" stroke-dasharray="null" stroke-width="5" stroke="#bf0000" fill="none"/>
  <line stroke-linecap="null" stroke-linejoin="null" id="svg_10" y2="348.5" x2="223" y1="348.5" x1="174" opacity="undefined" fill-opacity="null" stroke-opacity="null" stroke-dasharray="null" stroke-width="5" stroke="#bf0000" fill="none"/>
 </g>
</svg>