<svg width="400" height="480" xmlns="http://www.w3.org/2000/svg">
 <!-- Created with Method Draw - http://github.com/duopixel/Method-Draw/ -->
 <g id="Layer_1">
  <title>Layer 1</title>
  <ellipse id="svg_26" cy="219" cx="198.5" opacity="undefined" fill-opacity="null" stroke-opacity="null" stroke-dasharray="null" stroke-width="6" stroke="#e50d26" fill="#ffffff"/>
  <path stroke="#56aaff" transform="rotate(0.45847 198.377 148.08)" id="svg_33" d="m180.54085,189.10959c-32.05293,-24.94092 -43.51196,-40.71709 -43.60478,-60.0314c-0.08472,-17.60561 14.06181,-34.59896 28.72171,-34.50058c7.321,0.04775 23.02457,6.52841 28.58601,11.79578c2.80133,2.65327 4.12804,2.39122 10.36716,-2.04426c16.97585,-12.07376 33.55408,-12.32766 44.29065,-0.6768c17.15984,18.61871 14.03596,40.85332 -8.98083,63.91662c-12.2363,12.26222 -38.95761,34.01422 -41.78435,34.01422c-0.85962,0 -8.77795,-5.61261 -17.59557,-12.47359l0,0z" opacity="undefined" stroke-opacity="null" stroke-dasharray="null" stroke-width="6" fill="#fcfcfc"/>
  <path stroke="#56aaff" id="svg_34" d="m268.37735,343.73746c-34.16931,-24.00861 -46.38557,-39.19336 -46.48454,-57.78299c-0.08995,-16.94882 14.99088,-33.30653 30.61906,-33.20909c7.80481,0.04715 24.54526,6.28346 30.47397,11.35356c2.98639,2.55551 4.40161,2.3009 11.05194,-1.96771c18.09702,-11.62074 35.77036,-11.86592 47.21613,-0.6506c18.29288,17.91995 14.96274,39.32294 -9.57278,61.52036c-13.0459,11.80624 -41.53223,32.74396 -44.54553,32.74396c-0.91653,0 -9.35791,-5.40332 -18.75824,-12.00748l0,0z" opacity="undefined" stroke-opacity="null" stroke-dasharray="null" stroke-width="6" fill="#ffffff"/>
  <path id="svg_35" d="m100.42788,339.09256c-33.90806,-24.00687 -46.03134,-39.1922 -46.13002,-57.78329c-0.0895,-16.9469 14.87658,-33.30315 30.38564,-33.20885c7.74492,0.04715 24.35793,6.28349 30.24043,11.35368c2.964,2.55392 4.36799,2.30246 10.96731,-1.96774c17.96013,-11.62241 35.49805,-11.86443 46.85664,-0.65222c18.15327,17.92313 14.84851,39.32413 -9.50107,61.5238c-12.94489,11.80313 -41.21474,32.74207 -44.2044,32.74207c-0.91019,0 -9.28645,-5.40335 -18.61453,-12.00745l0,0z" opacity="undefined" stroke-opacity="null" stroke-dasharray="null" stroke-width="6" stroke="#56aaff" fill="#ffffff"/>
 </g>
</svg>