<svg width="400" height="480" xmlns="http://www.w3.org/2000/svg">
 <!-- Created with Method Draw - http://github.com/duopixel/Method-Draw/ -->
 <g id="Layer_1">
  <title>Layer 1</title>
  <ellipse id="svg_26" cy="219" cx="198.5" opacity="undefined" fill-opacity="null" stroke-opacity="null" stroke-dasharray="null" stroke-width="6" stroke="#e50d26" fill="#ffffff"/>
  <path stroke="#56aaff" id="svg_34" d="m181.63551,345.33853c-37.29933,-26.80573 -50.63463,-43.75958 -50.74268,-64.51498c-0.09819,-18.92346 16.36409,-37.18692 33.42387,-37.07813c8.51974,0.05264 26.79367,7.01552 33.26547,12.6763c3.25995,2.85324 4.80481,2.56897 12.06433,-2.19696c19.75476,-12.97461 39.04703,-13.24835 51.54126,-0.72639c19.96857,20.00771 16.33337,43.90425 -10.44968,68.68779c-14.24094,13.1817 -45.3367,36.55878 -48.62604,36.55878c-1.00049,0 -10.21512,-6.03284 -20.47655,-13.4064l0,0z" opacity="undefined" stroke-opacity="null" stroke-dasharray="null" stroke-width="6" fill="#ffffff"/>
  <path stroke="#56aaff" id="svg_35" d="m180.68607,195.92679c-37.03802,-26.33762 -50.28038,-42.99725 -50.38817,-63.39331c-0.09776,-18.59224 16.2498,-36.53647 33.19046,-36.43301c8.45984,0.05173 26.60637,6.89354 33.03186,12.45598c3.23761,2.80188 4.77119,2.526 11.97968,-2.15878c19.61798,-12.75079 38.7748,-13.01631 51.18187,-0.71555c19.82898,19.66322 16.21915,43.14201 -10.37808,67.49699c-14.1398,12.94907 -45.0192,35.9209 -48.28482,35.9209c-0.9942,0 -10.14365,-5.92795 -20.33279,-13.17322l0,0z" opacity="undefined" stroke-opacity="null" stroke-dasharray="null" stroke-width="6" fill="#ffffff"/>
 </g>
</svg>