<svg width="400" height="480" xmlns="http://www.w3.org/2000/svg">
 <!-- Created with Method Draw - http://github.com/duopixel/Method-Draw/ -->
 <g id="Layer_1">
  <title>Layer 1</title>
  <path stroke="#56aaff" id="svg_1" d="m165.03853,298.67352c-45.90659,-32.3978 -62.32013,-52.89075 -62.45306,-77.97717c-0.12138,-22.87251 20.14108,-44.9435 41.13786,-44.81836c10.48438,0.06364 32.97639,8.48175 40.94043,15.32399c4.01297,3.44676 5.91434,3.10529 14.84761,-2.65546c24.31549,-15.6824 48.0591,-16.01328 63.43727,-0.88019c24.57663,24.18556 20.10248,53.06633 -12.86258,83.02736c-17.52585,15.92633 -55.79922,44.18378 -59.84712,44.18378c-1.23131,0 -12.57108,-7.29376 -25.20041,-16.20395l0,0z" opacity="undefined" fill-opacity="null" stroke-opacity="null" stroke-dasharray="null" stroke-width="5" fill="none"/>
  <line stroke-linecap="null" stroke-linejoin="null" id="svg_2" y2="197.5" x2="270" y1="196.5" x1="114" opacity="undefined" fill-opacity="null" stroke-opacity="null" stroke-dasharray="null" stroke-width="5" stroke="#56aaff" fill="none"/>
  <line stroke-linecap="null" stroke-linejoin="null" id="svg_3" y2="217.5" x2="278" y1="217.5" x1="103" opacity="undefined" fill-opacity="null" stroke-opacity="null" stroke-dasharray="null" stroke-width="5" stroke="#56aaff" fill="none"/>
  <line stroke-linecap="null" stroke-linejoin="null" id="svg_4" y2="242.5" x2="272" y1="242.5" x1="109" opacity="undefined" fill-opacity="null" stroke-opacity="null" stroke-dasharray="null" stroke-width="5" stroke="#56aaff" fill="none"/>
  <line stroke-linecap="null" stroke-linejoin="null" id="svg_5" y2="269.5" x2="250" y1="270.5" x1="127" opacity="undefined" fill-opacity="null" stroke-opacity="null" stroke-dasharray="null" stroke-width="5" stroke="#56aaff" fill="none"/>
  <line stroke-linecap="null" stroke-linejoin="null" id="svg_6" y2="292.5" x2="223" y1="292.5" x1="156" opacity="undefined" fill-opacity="null" stroke-opacity="null" stroke-dasharray="null" stroke-width="5" stroke="#56aaff" fill="none"/>
 </g>
</svg>