<svg width="400" height="480" xmlns="http://www.w3.org/2000/svg">
 <!-- Created with Method Draw - http://github.com/duopixel/Method-Draw/ -->
 <g id="Layer_1">
  <title>Layer 1</title>
  <path id="svg_1" d="m179.88931,218.70651c-34.9518,-23.07417 -47.44887,-37.67058 -47.54906,-55.53926c-0.09288,-16.28914 15.33304,-32.01057 31.32043,-31.91917c7.98347,0.04532 25.10767,6.04016 31.17014,10.91237c3.05577,2.45578 4.50244,2.21306 11.30508,-1.8913c18.51247,-11.16945 36.59041,-11.40361 48.29854,-0.62575c18.71234,17.22568 15.30582,37.79727 -9.79225,59.13406c-13.34561,11.34497 -42.48318,31.47021 -45.5666,31.47021c-0.93649,0 -9.57217,-5.19353 -19.18628,-11.54117l0,0z" opacity="undefined" fill-opacity="null" stroke-opacity="null" stroke-dasharray="null" stroke-width="5" stroke="#56aaff" fill="none"/>
  <path stroke="#56aaff" id="svg_2" d="m102.95965,352.89404c-35.47324,-23.07602 -48.15603,-37.67154 -48.25927,-55.5419c-0.09359,-16.28741 15.56316,-32.00995 31.78844,-31.91931c8.10202,0.04532 25.48179,6.04248 31.63565,10.91574c3.10107,2.45325 4.56956,2.21155 11.47356,-1.89432c18.789,-11.1665 37.13664,-11.40518 49.01942,-0.6254c18.99115,17.22702 15.53333,37.79565 -9.93933,59.13425c-13.54272,11.34464 -43.1175,31.46933 -46.24534,31.46933c-0.95171,0 -9.71454,-5.19345 -19.47314,-11.53839l0,0z" opacity="undefined" fill-opacity="null" stroke-opacity="null" stroke-dasharray="null" stroke-width="5" fill="none"/>
  <path id="svg_3" d="m263.32288,355.39819c-37.82112,-23.53906 -51.34407,-38.43259 -51.45251,-56.66116c-0.10176,-16.61963 16.59395,-32.65665 33.89151,-32.56418c8.6376,0.04636 27.16769,6.16141 33.73004,11.13312c3.30554,2.50589 4.87201,2.25931 12.23096,-1.9295c20.03412,-11.39496 39.59491,-11.63538 52.26385,-0.63803c20.24899,17.57205 16.56293,38.55927 -10.59543,60.32935c-14.43909,11.57376 -45.97183,32.10468 -49.30615,32.10468c-1.01572,0 -10.35706,-5.29846 -20.76227,-11.77426l0,0z" opacity="undefined" fill-opacity="null" stroke-opacity="null" stroke-dasharray="null" stroke-width="5" stroke="#56aaff" fill="none"/>
  <line stroke-linecap="null" stroke-linejoin="null" id="svg_4" y2="154.5" x2="263" y1="155.5" x1="135" opacity="undefined" fill-opacity="null" stroke-opacity="null" stroke-dasharray="null" stroke-width="5" stroke="#56aaff" fill="none"/>
  <line stroke-linecap="null" stroke-linejoin="null" id="svg_5" y2="175.5" x2="260" y1="178.5" x1="137" opacity="undefined" fill-opacity="null" stroke-opacity="null" stroke-dasharray="null" stroke-width="5" stroke="#56aaff" fill="none"/>
  <line stroke-linecap="null" stroke-linejoin="null" id="svg_6" y2="198.5" x2="238" y1="198.5" x1="156" opacity="undefined" fill-opacity="null" stroke-opacity="null" stroke-dasharray="null" stroke-width="5" stroke="#56aaff" fill="none"/>
  <line stroke-linecap="null" stroke-linejoin="null" id="svg_7" y2="214.5" x2="221" y1="215.5" x1="180" opacity="undefined" fill-opacity="null" stroke-opacity="null" stroke-dasharray="null" stroke-width="5" stroke="#56aaff" fill="none"/>
  <line stroke-linecap="null" stroke-linejoin="null" id="svg_8" y2="285.5" x2="185" y1="286.5" x1="58" opacity="undefined" fill-opacity="null" stroke-opacity="null" stroke-dasharray="null" stroke-width="5" stroke="#56aaff" fill="none"/>
  <line stroke-linecap="null" stroke-linejoin="null" id="svg_9" y2="312.5" x2="183" y1="312.5" x1="55" opacity="undefined" fill-opacity="null" stroke-opacity="null" stroke-dasharray="null" stroke-width="5" stroke="#56aaff" fill="none"/>
  <line stroke-linecap="null" stroke-linejoin="null" id="svg_10" y2="335.5" x2="160" y1="336.5" x1="77" opacity="undefined" fill-opacity="null" stroke-opacity="null" stroke-dasharray="null" stroke-width="5" stroke="#56aaff" fill="none"/>
  <line stroke-linecap="null" stroke-linejoin="null" id="svg_11" y2="348.5" x2="143" y1="348.5" x1="101" opacity="undefined" fill-opacity="null" stroke-opacity="null" stroke-dasharray="null" stroke-width="5" stroke="#56aaff" fill="none"/>
  <line stroke-linecap="null" stroke-linejoin="null" id="svg_12" y2="283.5" x2="347" y1="284.5" x1="220" opacity="undefined" fill-opacity="null" stroke-opacity="null" stroke-dasharray="null" stroke-width="5" stroke="#56aaff" fill="none"/>
  <line stroke-linecap="null" stroke-linejoin="null" id="svg_13" y2="306.5" x2="356" y1="308.5" x1="212" opacity="undefined" fill-opacity="null" stroke-opacity="null" stroke-dasharray="null" stroke-width="5" stroke="#56aaff" fill="none"/>
  <line stroke-linecap="null" stroke-linejoin="null" id="svg_14" y2="329.5" x2="337" y1="330.5" x1="233" opacity="undefined" fill-opacity="null" stroke-opacity="null" stroke-dasharray="null" stroke-width="5" stroke="#56aaff" fill="none"/>
  <line stroke-linecap="null" stroke-linejoin="null" id="svg_15" y2="349.5" x2="308" y1="350.5" x1="258" opacity="undefined" fill-opacity="null" stroke-opacity="null" stroke-dasharray="null" stroke-width="5" stroke="#56aaff" fill="none"/>
 </g>
</svg>