<svg width="400" height="480" xmlns="http://www.w3.org/2000/svg">
 <!-- Created with Method Draw - http://github.com/duopixel/Method-Draw/ -->
 <g id="Layer_1">
  <title>Layer 1</title>
  <path id="svg_1" d="m171.41856,230.92287c-36.77766,-25.8709 -49.92625,-42.23645 -50.03327,-62.27155c-0.0963,-18.26266 16.13517,-35.89093 32.95687,-35.78835c8.40012,0.05046 26.41884,6.77225 32.7991,12.23534c3.21542,2.754 4.73746,2.48215 11.89548,-2.11967c19.47957,-12.52341 38.50128,-12.78763 50.82111,-0.70207c19.68954,19.31358 16.10516,42.37831 -10.30487,66.30177c-14.04062,12.72075 -44.7019,35.28418 -47.94521,35.28418c-0.98651,0 -10.07179,-5.82214 -20.18921,-12.93965l0,0z" opacity="undefined" fill-opacity="null" stroke-opacity="null" stroke-dasharray="null" stroke-width="5" stroke="#56aaff" fill="none"/>
  <path id="svg_2" d="m176.21294,377.00769c-38.08159,-26.57266 -51.69667,-43.37567 -51.80756,-63.95398c-0.10075,-18.75879 16.70795,-36.86353 34.12568,-36.75568c8.69725,0.05219 27.3555,6.9545 33.96214,12.56613c3.32872,2.82843 4.90599,2.54663 12.3167,-2.17786c20.17075,-12.86185 39.86714,-13.13321 52.62401,-0.72015c20.38745,19.83731 16.67593,43.52237 -10.67,68.09052c-14.53851,13.06714 -46.28815,36.24088 -49.64583,36.24088c-1.02214,0 -10.42831,-5.98053 -20.90514,-13.28986l0,0z" opacity="undefined" fill-opacity="null" stroke-opacity="null" stroke-dasharray="null" stroke-width="5" stroke="#56aaff" fill="none"/>
  <line stroke-linecap="null" stroke-linejoin="null" id="svg_3" y2="146.5" x2="255" y1="145.5" x1="131" opacity="undefined" fill-opacity="null" stroke-opacity="null" stroke-dasharray="null" stroke-width="5" stroke="#56aaff" fill="none"/>
  <line stroke-linecap="null" stroke-linejoin="null" id="svg_4" y2="162.5" x2="263" y1="163.5" x1="122" opacity="undefined" fill-opacity="null" stroke-opacity="null" stroke-dasharray="null" stroke-width="5" stroke="#56aaff" fill="none"/>
  <line stroke-linecap="null" stroke-linejoin="null" id="svg_5" y2="184.5" x2="257" y1="183.5" x1="128" opacity="undefined" fill-opacity="null" stroke-opacity="null" stroke-dasharray="null" stroke-width="5" stroke="#56aaff" fill="none"/>
  <line stroke-linecap="null" stroke-linejoin="null" id="svg_6" y2="206.5" x2="238" y1="207.5" x1="141" opacity="undefined" fill-opacity="null" stroke-opacity="null" stroke-dasharray="null" stroke-width="5" stroke="#56aaff" fill="none"/>
  <line stroke-linecap="null" stroke-linejoin="null" id="svg_7" y2="226.5" x2="215" y1="227.5" x1="168" opacity="undefined" fill-opacity="null" stroke-opacity="null" stroke-dasharray="null" stroke-width="5" stroke="#56aaff" fill="none"/>
  <line stroke-linecap="null" stroke-linejoin="null" id="svg_8" y2="300.5" x2="265" y1="302.5" x1="129" opacity="undefined" fill-opacity="null" stroke-opacity="null" stroke-dasharray="null" stroke-width="5" stroke="#56aaff" fill="none"/>
  <line stroke-linecap="null" stroke-linejoin="null" id="svg_9" y2="326.5" x2="267" y1="326.5" x1="129" opacity="undefined" fill-opacity="null" stroke-opacity="null" stroke-dasharray="null" stroke-width="5" stroke="#56aaff" fill="none"/>
  <line stroke-linecap="null" stroke-linejoin="null" id="svg_10" y2="348.5" x2="250" y1="348.5" x1="143" opacity="undefined" fill-opacity="null" stroke-opacity="null" stroke-dasharray="null" stroke-width="5" stroke="#56aaff" fill="none"/>
  <line stroke-linecap="null" stroke-linejoin="null" id="svg_11" y2="371.5" x2="224" y1="371.5" x1="170" opacity="undefined" fill-opacity="null" stroke-opacity="null" stroke-dasharray="null" stroke-width="5" stroke="#56aaff" fill="none"/>
 </g>
</svg>