<svg width="400" height="480" xmlns="http://www.w3.org/2000/svg">
 <!-- Created with Method Draw - http://github.com/duopixel/Method-Draw/ -->
 <g id="Layer_1">
  <title>Layer 1</title>
  <path id="svg_18" d="m67.48786,311.34842c12.32863,-34.4888 34.55539,-63.92606 53.46496,-93.13837c21.9973,18.7482 41.00171,59.99091 57.53505,88.71445c-14.74646,33.228 -35.97473,63.48993 -55.09863,93.28555c-20.61599,-27.26291 -38.24514,-58.41086 -55.90138,-88.86163l0,0z" opacity="undefined" stroke-opacity="null" stroke-dasharray="null" stroke-width="6" stroke="#e50d26" fill="#ffffff"/>
  <path stroke="#e50d26" id="svg_19" d="m233.34286,305.26642c11.88367,-33.73224 33.3111,-62.52109 51.53751,-91.09137c21.20538,18.33495 39.52185,58.67242 55.46249,86.7674c-14.21747,32.495 -34.67834,62.08923 -53.11374,91.2326c-19.87079,-26.66364 -36.86615,-57.12701 -53.88626,-86.90863l0,0z" opacity="undefined" stroke-opacity="null" stroke-dasharray="null" stroke-width="6" fill="#ffffff"/>
  <path stroke="#e50d26" id="svg_20" d="m149.90785,140.81042c12.21756,-31.45683 34.24408,-58.30527 52.98413,-84.95039c21.79831,17.099 40.63066,54.71697 57.01585,80.9172c-14.6144,30.30501 -35.65059,57.90472 -54.6022,85.08281c-20.43028,-24.86552 -37.89977,-53.27519 -55.39778,-81.04962l0,0z" opacity="undefined" stroke-opacity="null" stroke-dasharray="null" stroke-width="6" fill="#fcfcfc"/>
 </g>
</svg>