<svg width="400" height="480" xmlns="http://www.w3.org/2000/svg">
 <!-- Created with Method Draw - http://github.com/duopixel/Method-Draw/ -->
 <g id="Layer_1">
  <title>Layer 1</title>
  <ellipse id="svg_26" cy="219" cx="198.5" opacity="undefined" fill-opacity="null" stroke-opacity="null" stroke-dasharray="null" stroke-width="6" stroke="#e50d26" fill="#ffffff"/>
  <path id="svg_33" d="m176.68547,209.40787c-38.08264,-26.338 -51.69733,-42.99788 -51.80761,-63.39409c-0.10065,-18.5918 16.70708,-36.53705 34.12478,-36.43316c8.69821,0.05043 27.3559,6.8941 33.96355,12.45653c3.32831,2.80191 4.90459,2.52517 12.3174,-2.15876c20.16931,-12.75008 39.86618,-13.0182 52.62248,-0.71471c20.38791,19.66165 16.67639,43.14174 -10.67027,67.49693c-14.53815,12.9491 -46.28622,35.91956 -49.64473,35.91956c-1.02132,0 -10.42923,-5.927 -20.90559,-13.1723l0,0z" opacity="undefined" fill-opacity="null" stroke-opacity="null" stroke-dasharray="null" stroke-width="6" stroke="#56aaff" fill="#56aaff"/>
  <path id="svg_34" d="m177.95821,386.17273c-41.21184,-29.13663 -55.94596,-47.56473 -56.06531,-70.12494c-0.10849,-20.56897 18.08058,-40.42059 36.92984,-40.30234c9.41342,0.05722 29.60419,7.62558 36.75485,13.77863c3.60191,3.10135 5.30882,2.79236 13.32985,-2.388c21.8269,-14.10287 43.14288,-14.40042 56.94766,-0.78958c22.0632,21.74753 18.04669,47.72198 -11.54578,74.66061c-15.73474,14.32794 -50.0923,39.73782 -53.72668,39.73782c-1.10541,0 -11.28661,-6.55743 -22.62444,-14.5722l0,0z" opacity="undefined" fill-opacity="null" stroke-opacity="null" stroke-dasharray="null" stroke-width="6" stroke="#56aaff" fill="#56aaff"/>
 </g>
</svg>