<svg width="400" height="480" xmlns="http://www.w3.org/2000/svg">
 <!-- Created with Method Draw - http://github.com/duopixel/Method-Draw/ -->
 <g id="Layer_1">
  <title>Layer 1</title>
  <path stroke="#56aaff" id="svg_1" d="m63.98785,290.93622c11.77328,-38.65649 32.99884,-71.65208 51.05746,-104.39616c21.00558,21.01358 39.15317,67.24254 54.94254,99.43968c-14.08301,37.24393 -34.35425,71.16061 -52.61667,104.5603c-19.68738,-30.55765 -36.52322,-65.46985 -53.38333,-99.60382l0,0z" opacity="undefined" stroke-opacity="null" stroke-dasharray="null" stroke-width="6" fill="#ffffff"/>
  <path stroke="#56aaff" id="svg_2" d="m234.46786,292.2182c11.2164,-37.71033 31.44229,-69.89572 48.64755,-101.83815c20.0163,20.4985 37.30786,65.59532 52.35245,97.00316c-13.42023,36.32956 -32.73376,69.41525 -50.13321,101.99683c-18.75873,-29.80887 -34.80197,-63.86609 -50.86679,-97.16183l0,0z" opacity="undefined" stroke-opacity="null" stroke-dasharray="null" stroke-width="6" fill="#ffffff"/>
  <path stroke="#56aaff" id="svg_4" d="m152.88786,157.8989c11.10687,-35.62559 31.13251,-66.03222 48.16745,-96.20885c19.81627,19.36581 36.93655,61.96924 51.83253,91.64083c-13.286,34.32173 -32.41145,65.57919 -49.63835,96.35918c-18.57147,-28.16147 -34.45435,-60.33549 -50.36163,-91.79115l0,0z" opacity="undefined" stroke-opacity="null" stroke-dasharray="null" stroke-width="6" fill="#ffffff"/>
 </g>
</svg>